<svg xmlns="http://www.w3.org/2000/svg" width="40" height="40" fill="none" viewBox="0 0 80 81"><path fill="#1e1e1e" d="M30 47.7q1.8-1.6 4.4-2.8c1.2-.8 3-1.1 4.3-1 1.4.2.7.4 1.5.6q1.5.5 2.4 1t1.5 1.3c.4.4-.3.2 0 .6 1.5 2.2 2.2 3.6 2.5 6v1.3a4 4 0 0 1-.8 2.1q-.5.7-.8.8-.6.5-1 .6l-1.3.7-5 2.6c-1.7.9-3.2 2.3-3.4 3q.2-.7 0-1.4l-.6-1-.6-.4H33h.8q.5-.1 1.4-.8l.9-.8 2.3-2.8q1.3-1.7 1.5-3-.2-.2-.4-.1-.2-.4 0-.5.4.8.9 1.2v.1l.5.3h.2-.1l-.6-.2-1.4-.2-3.9.1c-.5.2.2.7-.4.5 0 0 0-.4-.2-.3q-.7.2-1.3.8l-.2.2q-.3.2-.5.7-.5.7-.5 1.6l-.1-.6q-.1-.4-.7-.8-1-.6-1.3-.3l-.5.1.4-.4c.2-.2-.3-.2 0-.6q0 0 .2-.3l1-1c.3-.3.4 0 .5 0 .8 0 1-1.6 1.2-1.7l1.8-2.4.2-.2.4-.3.1-.1a2.2 2.2 0 0 1 3.2 1.8v.5l-.1.3-.1.2v.2l-.2.2-.6 1-.8 1-2.1 3.8q-.8 1.6-.8 2.3c0-.5 0-1.1-1-1.6q-.6-.2-.9-.2h-.5q0 .2 0 0l.8-.4q2.6-1.6 5.1-3.4l.6-.5c.2-.1-.3-.3 0-.5a29 29 0 0 0 4.2-4.2l.3-.1.8-.4h.9q.7.2 1.3.9a2 2 0 0 1 .5 1.5l-.1.4v.2l-.1.2-.1.2-.1.1-.2.3-.6.7-2 2.1c-.3.2-.3-.3-.6-.1-1.3 1.1-3.5 2.7-3.8 4.4v.9l-.6.7-.3.3v-.9l-.2-.5q-.2-.4-.7-.6l-.6-.2-.4.1.7-.1c.7-.3.4.5 1-.2.1-.2-.3-.3 0-.5.8-1 2-2 2.7-3q0-.3-.2-.4c0-.6 1.2-1.1 1.5-1.4l.2-.2.3-.2.6-.4c.2 0 .6-.4 1.6 0a2 2 0 0 1 1 1.3q0 .6 0 .8l-.6 1.4v-.2h.1v-.7q0-.5-.8-1.1-1-.4-1.4-.1-.4.1-.4.2h-.1l-.2.3v.1h-.1l.5-1 .5-1.4h-.4l-.1-.3c.1.3 0 0-.2 0l-.7-.5q-.8-.6-1.8-1c-.3-.2.2-.4 0-.5-.8-.5-1.2.2-2-.2q0-.3 0-.4c-.3-.7-1 0-1-.1-.8 0-1.5-.4-2.7 0l-.6.3c-.2.1.4.3-.1.6l-3.9 2.2.1-.5V53q-.1-.2-.5-.6-.7-.4-1-.4l-.6.1-.1.1.4-.4.9-1-.2.3v.6q0 .6.6 1l.9.3h.3l-.3.1-1 .2a2 2 0 0 1-1.5-.5l-.5-.5c-.4-.6.2-.4.2-.5v-.1l.3.1h.3l.3-.2.3-.1.1-.2c0-.2.5.4.7 1.2v1.8q0 .7.5 1.3-.6 3-.8 5.7Q28 63 27 65a4 4 0 0 1-3.4 2.2h-.2a1.6 1.6 0 0 1-1.5-1.6q.1-.6.2-.7l.2-.2q.1-.2.2-.3l.5-.4 2.5-1.4q1.6-.9 3.5-1.5 0 .1.3.3l.2-.1h.9q.2.1.3.5v.5l-.1.1-.2.2-.2.3-.1.5q0 .4-.4 1.3c-.2.3-1.5.2-1.6.2-.4 0-.4-.7-.6-.7-.9.2.3 1.7-.6 2.4l-.2-.4q-.5.3-.8.5c-.8.1-1.5-.5-2 .5v.4q.5.5-.3 1L21.3 70h.1l.2-.2.3-.3.3-.6q0-.7-.3-1.2-.8-.7-1-.6h-.6.1c.5 0 .3.4.3.4 1.5 0 1 .4 1.9.8s.2-1 .4-1.3 1.3-.2 1.6-.1c.3 0 0 .4.3.4h.7l.7-.1q.3-.3.7.2l.1.4c0 1.4-.7 1.7-1.2 2q-.8.2-1.4.6c-.3.2 0 .2-.1.4-.7.7-1.4.8-2 1.8v.1h.1l.1-.2q.1-.2-.1-.8-.3-.4-.5-.3l-.2-.1V71h.6c.1 0 0 .4.4.2.6-.2 1.6-.8 2-1.3l.2-.1c0-.2-.4-.3 0-.5.4-.1.1.4.6.2s1.6-1 2-1.3 0-.5 0-.5c0-.3.8-1 .8-1a68 68 0 0 1 6.7-4.4h.3l.3-.1q.3 0 .6.2.5.6.4.9l-.2.5q-.3.5-.5.6l-.4.4-.8.5-1.6 1.2c-.3.3.1.5.1.5-.8.8-.7-.6-1.6-.4.6.6.1.8-.5 1.3-.3.3 0 .4 0 .5-.1.7-.8.4-1 .4-.5-.2-.5.5-1 .4-.3 0-.1-.8-.7-.3 0 .3.9.6.5 1-1.5 1.6-5 3.5-6.6 4.5h-.1l-3 2h-.8l-.3-.5v-.3q.5-1 .7-1.1l.3-.4q-.1-.4.4-1c.7-.9 1.1.5 1.4.6.4.2.3-.2.6-.2s0 .4.4.1c.5-.2 1-1.6.9-2q-.5-.5-.6-.8-.1-.1.4-.6s.2.4.4.2q2.4-2.3 4.5-5c.2-.2.4.3.5.1 1-1 .6-1.4.1-1.6q-.1 0 0 .4l.3.4q.1-.8-.4-1.1t-1.6.2c-.8.4-.4.7-.7 1.3-.1.2-.8.2-.8.5.1.7 1 1-.4 1.6 0 0 0-.4-.3-.3q-.6.3-1 .8-.2.6-1.1 1.5l-.7.4.2-.3v-.4q0-.3-.3-.9-.7-.4-1-.4l-.4.1h.1l.7-.4 1.4-1c.7.9 1.5-.2 1.3-1l1-1.1v.4q0 .5.4.7l.3.1h-.5q-.3-.2-.2-.3c-.7-.4-.8.4-1 .5l-2.3 1-2 .9H19v.1l.1-.1.2-.4a1 1 0 0 0-.6-1h-.4q0 0-.1 0 .3 0 .5-.3s-.3-.8.4-.6c0 0-.3.7.5.2.7-.4 2.2-1.3 2.9-2.5l.2-.6q0-.1 0 0l-.2.2.1.5q.1.5.4.5l.5.2h.1-.3l-.2-.4c-.6-.2-.4.6-1.1.2a2 2 0 0 0-1.7 0l-.6.5-.2.3v.3l.1.4q.5.4.6.3l.5-.1s.1-.8.5-.9l2.1-.8c.3-.2 0-.4 0-.5q1.6-1 3.4-1.6h.3l.2.2v.3l-.1.1-.2.3-.4.4-.8 1-.3.4c-.3.5-.7 1.3-1.3 1.5-1 .5-1.8-1.5-2.8.4-.4.8.8 3.2-1.1 3.6l-.3.3c-.7 1.3-1.7 2-2.3 3.6q0 .3.3.4l.1.1h.5l.6-.1a12 12 0 0 0 3-1c0-.2.2-1 .5-1q.7-.1 1.1-.1 1.4-.7 2.3-1.8l.8-.7c.4-.3.5 0 1-.3.5-.4.5-1 1.3-1.3.6-.3 1.6 0 2.3-.5-.5-.7 0-1 .5-1.8.2-.2-.2-.3-.1-.4.1-.3.6-.4.7-.7l-.1-.4v-.3c.4-.5 1.4-.6 1.6-.6.7-.1.7-.6 1.2-.8s0 .5.6.2c1-.5 2-1.4 2.8-1.7l-.4-.7-.4.3c-.4.3.1.4 0 .4-.7.7-1.7 1-1.7 2-1.8-1.3-.4.5-1.9 1 0 0-.7-.7-.4-1 .2-.5 1-.6 1.3-1.1l.3-1.4c.4-.9 1.4.2 1.5.2.6.3 1-.3 1-.8l.8 1.5-.1.3q-1.2 1-2.2 2c-.5.5.1 1.3-.3 1.6q-.9.6-1.8.8-1 .1-1.4 1.6c-.1.4.8 1-.7 1.1 0 0-1.2 0-1.4.8l.2.4q-.6.6-1.3 1-.6 1-1.6 1.6l-.2.1h-1.2c-.8.2-1 1.1-1.7 1s-.3-1.2-1.4-1l.7 2.2-.5.3-4.7 1.2H18l-.8-.1-1-.7q-.8-.8-.7-1.9 0-.7.2-.9l.5-1c.1-.3-.4-.2-.2-.6q1-1.4 2-2.5l.4-.6 1.4-2.8c1.1.1 1.9-1.3 2.6-2q.4-.3.7-.3l.3-.2c.3-.5-.3-.6-.3-.8q.3-.8 1-.7h.9v1a2 2 0 0 0 1.9 1.6h.4l.3-.1h-.3l-.5 1.5c-.6.7-.3-.3-.8-.1-.9.3-1.5.4-2.4 1.2-.3.2-.8 1-1.7 1l-.3-.4-1 .2h-1l-.8-.4c-.6-.4-1-1.3-1-1.8l.1-1 .4-.7.3-.6.2-.4q0-.5.3-.8c.6-.8 2-.7 2.2-.7.8.2-.3.4-.3.5 0 .6.5.3 1 0h.3q.3.6 1 .4h.4q.2 0 .7.2.5.6.5 1v.5q0 .3.2.2h.2q.1-.1.2-.9.1-.2-.5-1a2 2 0 0 0-1.2-.7h-1l-.5.3.2-.4q0-.3.6-.4l.4-.1 1.2.2a3 3 0 0 1 1.5 2.3q-.1 1-.2 1.3l-.4.6-.2.3q-.5.6-1.5.7c-.7 0-.6-.6-1.6.5-.5.5.2.8-.2 1.4-.5.7-1.6 1.3-2.4 1.6h-.3l-.2.2h-.9l-.8-.2q-.6-.2-1-1a2 2 0 0 1 0-2.2l.5-.7.2-.1q.2 0 .1 0l.1-.1h.1l.2-.1.2-.1.5-.2.8-.4c.5-.2-.1-.4.2-.5q1.2-.6 2.6-1s-.3-.4 0-.5a12 12 0 0 1 3.1-.6h.6l1.2.6c.6.3 1.4 1.5 1.3 2.4q0 1.1-.3 1.5l-.5.8c-1 1-1.8 1.5-2.8 2.4l-1.3 1.2-.9.8-.5.4q-.2 0-.5.2l-1.4.2c-.4 0-1.7-.5-2.2-1.3a3 3 0 0 1-.5-1.8c0-1 .2-1.1.3-1.4.4-.8.6-.8.7-1l.3-.2q0-.2.3-.3 1.2-.8 2.3-1.3 1.7-.8 3-1.7c.9-.7.5-.9.8-1.3q.3-.6 1.4-.8.4-.2 1.5-.2.4-.2 2 .4.9.6 1.3 1.5a3 3 0 0 1 0 2v.3-1.1a3 3 0 0 0-.8-1.9q-1-.7-1.4-.7H29l.4.2q.3 0 1 .6a3 3 0 0 1 .7 1.8v.9l.2.2c-.2.7-1.4 2.3-1.6 2.7q.1.3.3.4a26 26 0 0 1-4.6 6l-.4-.2c-1.2 1-1.7 2.2-2.5 3.2l-.5.6.1-.3.2-.8q.1-.4 0-1.2c0-.6-.6-1.9-1.4-2.4a3 3 0 0 0-3-.3l-.4.1v.2h.5a10 10 0 0 1 2.6-1.2c.6-.3.2-1 .3-1 1.3-1.6 2.5-1.9 4.2-3 .8-.5 2.3-1.8 3.1-2.5.7-.5 1.2-.6 1.7-1.2l-.2-.3c.5-.9.7 0 .9 0l.7.1q.7 0 1.4-.8c.1-.2 0-1.6.2-1.9q.2-.2.3 0t-.2.3l-.1.3-.4.8-.2.4-.1.6c0 .4-.2 1 1.1 2.4q.4.4 1.5.8c1.1.3 1.6 0 1.9 0l.5-.1.2-.1h-.1l-1.6 1-2.4 1.6c-.2.2.4.3 0 .6q-2 1.6-4.4 3c-.4.2-.3-.2-.5-.2q-.7 0-.9.7l-.1.3c-1 .9-1.5 1.5-3.8 2.3l-1.2.3h-1.1q-.5 0-1.8-.8c-1-.6-1.7-2.5-1.5-3.4q.1-1.2.4-1.5l.4-.6.7-.7c1.1-1 2.4-1.8 2.9-2.6l-.1-.3-.3.2q-.1.1-.3 1.2 0 .3.3 1 0 .8 1.7 2l1.6.4.7-.1.2-.1-.2-.2q-.1 0-.4.3s.4.3-.1.4-1.5.7-2.5.5l-.6-.1h-1l-.5.1h-.3q-.2 0-1.3-.3a3.3 3.3 0 0 1-1.8-3.8c.4-1.2.8-1.4 1-1.6l.2-.1.3-.3.3-.1.2-.2h.2l.2-.3s0-1.6.8-1c.2.1.6 1 1 .1v-.5c.6-.6 1.6-1 2-1.9.2-.1.3-1 1-1 .2 0 .2.4.5.3l2-1.4.2-.1-.1.1-.3.4-.3.6q-.2.3-.2 1.8.1 1.1 1 2t1.3 1q1 .3 1.4.2l1.1-.2-.3-.3-.4-.2c-.5 0-1.4.5-1.8 1-.3.4.6.8 0 1.3l-1.5 1-.6.4q-.2.2 0 0l.2-.3.8-1.3v-.2a4 4 0 0 0-.9-4 4 4 0 0 0-2-1.2q-.9-.2-1.2-.1l-1 .1h.1q-.1.3-.6.8l.2-.2.1-.3.3-1.3.2-1c0-.6-.3-.2-.2-1l.5-5v-.2.7l.5.8q-.1 0-.8-1.4c-.6-1.5-.8-2.4.3-4.5a4.4 4.4 0 0 1 7.1-.4q.3.3 0 0l-.8-.4q-.7-.3-1.8-.2l-.4.1.3.1h.5c.5 0 0 .2-.1.4l-.2.3h.7l.7-.1h.8c.5.1 1.8 1 2 2.2a3 3 0 0 1-.4 2v.1c-.6.7-.4 2-.6 2.3q-.2.4-.9 1l-.5.4q-.3.3-1.5.6a4 4 0 0 1-4.3-2.2l-.3-1.3c0-2.7 1-3.3 1.6-4l.8-.6.6-.4 1-.6c.3-.3-.2-.4.1-.6q1.5-.8 2.8-1.4c.4-.2.2-.4.6-.6h.1q1.5-.7 3.8-.6c.2 0-.8.4.5.4q1 0 2 .3 1.2.5 2.6.7c.4 0 .7-.6 1.3.2.2.2-.4.8.9.6.1 0 2.2-.2 3 1.1l1.2 2.4.2.2c0 .1.2-.5.5.2q.8 1.5.5 3.6-.3 1.3-.6 1.9l-.5 1.3c-.1.4.5 0 .2.6l-.1.3v.1l-.1.2h-.1l-.1.2-.6.7a4 4 0 0 1-2.8 1.2q-1.4.2-3-1c-1.6-1.5-1.5-2.6-1.5-3.1l.1-1.3v-.1l.1-.3v-.2l.2-.2.2-.4v.1l-.3 1 .1 1 .5 1.2q.6 1.1 2.3 1.9a4 4 0 0 0 3.3-.2l.7-.5.2-.2.1-.1q.2-.1 0 0l-.4.6-1.2 1.3-.1.1c-.4.3-.3-.2-.4-.2-.9.1-.6 1-.7 1.1-.8 1.1-1.8 1.6-2.8 2.5-.3.3.2.4.1.5-.4.7-.3-.2-.8 0L38 66c-.5.1-.8.4-2.4.5a4 4 0 0 1-3.4-2 4 4 0 0 1-.7-2.3 5 5 0 0 1 .5-2.1l.4-.7.6-.8c.3-.4-.4-.2-.1-.6l.8-1q1.9-2.3 3.9-4.2c.3-.3.4.1.5.1.8 0 .8-1.2.9-1.4v-.2q.7-.9 1.1-1.3v.1l-.2.2-.1.3-.1.3-.1.3v.2l-.1 1.6.1.5a4 4 0 0 0 6.8 1.6l.2-.2-.5.6-2 2.4-3.3 2.7-7 4.4-.5.3-1.4.2q-.6.1-1.7-.4a4 4 0 0 1-2.4-4.4c.3-2.3 1-3.2 1.6-4.3l1.9-3.2 1.7-3-.1.3v.2l-.3.8.2 1.5c.2.9 1.5 2.3 2.8 2.5s1.9-.2 2.2-.3l.3-.2.6-.4.2-.2.1-.2c0 .2.4.3.2.5a102 102 0 0 1-6 6.8l-.5.5-.8.4c-.3.1-.6.4-2 .4-.6 0-2.1-.4-3-1.7-.9-1.1-.9-2-.9-2.5l.1-1.7c.1-.4-.4.1-.3-.6a8 8 0 0 1 2.7-4.8c.5-.3.1.5.6.1 1.1-.9 3-2 4.7-2.4.8-.2-.5-.4.5-.6l2-.1 6.1.3.6.2 1.6.8q.4.2 1 1a5 5 0 0 1 1 2.8c0 2.6-1.1 4.9-2.2 6.4-.2.2-1 0-1.3.6v.1l.5.5c-1 1.6-2 3.3-4.4 5.1q-1 .8-3 1.8-2.6.7-4.6.2l-1.4-.5q-.4 0-1.3-1a4 4 0 0 1-1-3.8c1.3-4 3.8-5.5 6-7 .2 0-.5-.2 0-.5a44 44 0 0 1 6.7-3.5l-.2.3-.2.7v1.4q0 .1 0 0c0 .1-.2-.7-.5-.8q-.1.2-.4 0l-.5-1q-.3-.3 0-.1l-.4-.3.2-.1-.2-.5q-2 1.3-4 2.5c-1 .5-1.2-.3-2-.4-.2 0-.8.5-1 .2q-1-1.2-2-2.4l-.5.2q0 .2-.3.1v-.4s.6-.7.6-1c0-.2-.4-.3-.3-.6q.3-.3.8-.7c.2-.4-.2-.7.5-1.3m-6.5 22.8c.8 0 0-1.3-.3-.6zm-3.8 4.3q-.7-.2-1.2.3-.3 0-.4.3.2.3.7.4c1 .3 1.2-.9.9-1m8.2-4.7c-1 .3 0 1.9.6.9zm6.5-18.4-.4.3c0 .5.9 0 .4-.3m.1 12.2c-.4 0-.9.8-.4.8s1-.8.4-.8M24 70q.2-.1.2-.4c-.3-.3-.6.2-.2.3m9.8-6.1q-1 .7-1.7 1h.4l.4.2v.3l-.2.2-.4.3H32q-.3 0-.7-.3a1 1 0 0 1-.4-.8l.2-.4v-.2l.2-.1.5-.5c.3-.3-.4 1 .1.8 1-.6.8-1.8 1.9-2.1.2 0 0 1.5-.1 1.6m-9 7.8.5-.3c0-.5-1 0-.5.3m3.1-9.4-1.2.6c-.2 1 2-.2 1.2-.6m-5.7 4.2q.2-1.3 1.3-1.2z"/><path fill="#1e1e1e" d="M35.6 38a36 36 0 0 1 2.5-6.6c.4-.7.4-.2.7-.7q.6-1.2 1.4-2.3c.2-.2.2.3.4 0l1-1.2a18 18 0 0 1 3-3.3l5.1-4.6.8-.6 1-.4q.2-.2 1.1 0 1.3.3 1.7 1.4l.2.5v.8l-.1.6-.1.3-.7 1.4-1.2 2.3-5.2 9.5c-1.2 2.2-2.8 4.7-3.9 7l-.2.5q0 .4.2.3c-.1 1-.5.5-.8 1l-1.8 3.2q0 .1 0 0v-.3l-.4-.6q-.4-.5-1-.6l-.8.1-.1.1c-.3.3-.1 0 0 0l.8-1.6c.5-.9-.5-.3.2-1 .1 0 .2.3.4 0 .4-.4.9-1.5 1.1-1.9l.1-.1 1-1.6 2-3.4c0-.2-.4 0-.2-.5.1-.4.7-1.4 1-1.7.2-.3.4 0 .5 0 .6-.3.7-1.8.8-2 1.3-2.9 3-5 4.4-7.6l1-2q1.2-2 2.5-4l.3-.5.2-.2.5-.3q.1-.1 1-.1a2 2 0 0 1 1.2.7q.3.7.2.7v1.1l-.2.5-.9 2-1.2 2.5-.4.8c0 .3.4.2.2.5q-2 4.5-4.5 9c-.1.3-.2-.2-.4.1-1.1 1.8-3 4.5-2.4 6.2l-.8 1.6-1.3 2.2q-.4.3-.5.2t-.2.5q0-.1.2-.1v-.3q0-.3-.2-.6-.3-.5-1-.5h-.5l-.3.2-.2.2 1.7-3.3.3-.5-.2-.4c0-.8 1.1-1.5 1.3-1.7 1.2-1.4 1.7-2.7 2.6-4.2.2-.4-.4-.1-.2-.5l3-5.2c.3-.4.4.1.5 0 .6-.8.2-1.3.7-2q.3 0 .4 0c.6-.2.3-.9.4-1q.5-1.3 1.3-2.1.7-.7 1.2-1.7c0-.2-.4 0-.2-.5l1.4-2.6.1-.2.1-.1.1-.1q0-.2.6-.4.8-.2 1.4.2l.4.5.1.3v1.2l-.2.6-.9 1.7-2.6 4.8c-.3.5-.4 0-.4 0-.7.3-.3 1-.4 1.2-.5 1.4-1.6 2.4-1.3 3.6q-2.2 4-4.1 8l-1.3 2.7v-.6l-.1-.4q-.2-.4-.7-.6-1 0-1 .2l-.3.2.2-.3.3-.7.8-1.3 2-3.2c0-.1.2.2.3 0 1-1.6.4-1.5.5-2.9 0-.3 1-.9 1.2-1 .3-.1.5.4.6.3.7-.6-.8-1.2-.3-2.3l.3.2.5-.8c.5-.5 1.3-.4 1.4-1.5 0-.2-1-.4-.4-1.3l1.2-2.4v-.1c.3-.3.4 0 .4 0 1-1 .9-.5 1.7-1 .8-.3-.5-.7-.5-1s.7-1.1 1-1.3c.1-.2.1.2.3 0 1-1.2-.3-.9-.3-1.4 0-1.2 1.3-1.6 1.8-2.6.1-.2-.2 0-.1-.3q.4-1 .8-1.7l.3-.9c0-.2-.2-1.2.5-1.6 0 0 .2.3.4-.1l1-2.3c0-.5-.5 0-.2-.6.2-.2.2.3.5-.1l.4-1 .4-1.3c.2-.5-.2-.3-.2-.4l.1-1.3.2-.8a1 1 0 0 0 .4.8h.3q0 0 0 .1l-.3.3-1.8 1.8-4.8 5.8c-.2.3.2.3.1.3-.5 1-.7-.2-1.4.3.6.3.2.6-.1 1.3-.2.3.1.3.1.4v.2-.1l.1-.3v-.3l-.5-.7-.7-.1-.3.1-.1.1h-.1v.1-.1l.3-.2h.3c.6-.1.5-.7.8-.8.4 0 .3.7.8 0 0-.3-1-.2-.6-.7q.5-1.1 1.7-2.4 1.6-2 3.3-3.4l.3-.3h.1l.3-.1.6.2q.3.3.2.5l-.1.3-.1.2-1 1.3-1.1 1.4c-1.3 1.5-.5 1.2-1 2.2s-1.1 0-1.4 0q-.3.1-.4.4c-.3 0-.1-.4-.5 0l-.6 1.3v.6q.2.4.5.6v.4-.7l-.5-.7c-.7-.3-1 0-1 0l-.1.1q-.2 0 0 0c.1 0 .2.3.4 0q.3-.1.5-.4l4-4.4v-.1c.3-.2.4.2.5 0 1.4-1.2.5-1 .8-2.2q.5.8 1.6.3h-.5l-.2-.3-.2.4c-.3.7 0 .8 0 1.4 0 .1-.5.5-.4.7.3.6 1.1.4.1 1.6 0 0-.2-.3-.3-.1q-.6 1-.7 1.7l-.5 1.2-.6 1.2-.1.1V16l-.1-.4q-.2-.4-.7-.6h-.6l-.4.2h.1l.5-.6 1-1.2c.7.5 1.2-.7 1-1.5l1.4-2.3q.3-.1.3 0c.7-.2.4-.8.5-1l.2-.2q.1-.2.5-.1l.3.2v.2l.2.2v.4c-.8 2.3-2 3-2.6 4.9 0 0 .4.5-.3.7 0 0 0-.7-.4 0l-.1.2v-.3q-.1-.2-.4-.3h-.5l.2-.2.7-.7q.8-.7 1.3-1.7l.3-.6q0-.3.2-.4l.3-.3c.1 0 0-.2.5-.3l.6.1.4.5v.2l-.2.2q-.2.4-.2.7.1.2-.4.4-1.2.3-1.8 2.1v.5-.4l1.2-2c.1-.3-.3-.2-.3-.3.9-2 1.9-3.3 3-5.4q.3-.3.4-1 .3-.8.7-1.3.5-.2 1 0h.7v.1L68 5l-.2.2h-1a1 1 0 0 1-.9-.8v-.7q-.2 0-.3.6c-.1.7 1 2.7-.9 3.3l-1.5 1.7h.2v.3q.5-.7.6-1.5v-.6h-.7L63 8l-.7 1-1 2.3s.3.7.2 1q-.5.5-.7.8l-.1.2-.3.7.1-.2.2-.3 1-2.2c.2-.5.4-.2.7-.7s.1-1 .6-1.7l.4-.4h.1-.3v-.2H63l-.3.2-.9.8q.4.3.4.7l-.3 1.2q.1.1.3.2-.2.5-.4 1l.2.3c0 .7-.9 1.3-1 1.4-.7.5-.5.9-.9 1.3-.3.4-.2-.4-.5 0l-.8 1.4q-.6 1-1.6 1.7c-.3.3 0 .4 0 .4-.8.7-1.9.6-2.3 1.4-1-1.4-.6 0-1.7 0q-.2 0-.4 0c-.1 0-.1-.8.2-.9h.1q.7 0 1.4-.2c.2 0 .7-1 .7-1 .5-.6 1 .4 1.2.4.8.4 1-.9 1.1-1l.7-1.2.7-1.5c.2-.7-.5-1-.3-1.5.9-1.5 2.1-1.6 2-3.5 0-.3-.6-.4-.3-.8q0-.2.5-.5l.5-.4.3-.4-.1.6q-.1.3.6 1.3c.3.3 1 .5 1.3.4l.8-.2.4-.3v-.2h.1v-.1l.1.1q.2.1.2.3v.3l-.7 1.2q-.2 1-.8 2c-.3.4-1 .7-1.1.9l-.3.2-.2.5-.3.3v.1l-.3.2-.3.2h-.2l-.5.1q-.8 0-1.3-.6l-.4-.6v-.7l.2-.7q0-.3.2-.3c.4-.2.6.3 1 .2l.4-.3-1.7-1 2.5-4.3.6-.9.4-.4.5-.3.6-.2a2.2 2.2 0 0 1 2.5 2v.6l-.1.7c-.1.4.3 0 .2.6l-.6 1 .3-.7-.1-1.2q-.4-1-1.2-1.4Q63 7 62.8 7l-.6.2-.3.2.2-.2L63.3 6q.6-1.2 1-2.3.4 0 .6-.5v1q-.1.3.4 1 .3.5 1 .8.8.3 1.2.2.7-.1 1-.4l.5-.4v-.1l-.2.4-.5 1-.3.2q0 0-.3.2c-.6.8.1.7.1 1-.2 1.3-1.5.7-2.1 2l.2 1.4c-.1.9-.3 0-.6.4-.5.8-1 1.3-1.2 2.4l-.1.8-.1.4-.1.1q-.1 0 0-.2l-.3-1.2-.8-.9a2 2 0 0 0-1.8 0l-.3.1-.2.3-.2.1.2-.1V13q-.1-.5-.1-.9c0-.6.8-1.2 1-1h.1v.2q.3.3.4 0v-.1.2q0 .2.3.6.4.6 1 .7l.4-.3q.4 0 .4-.2h.1V12h-.1l-.2.1q0 .3.3.5l.2-.2q0 0-.7.3h-.3.4l.6-.1h.1q0-.2.1 0l.1.2-.2.5q-.5.5-1.2.7c-.6.2-.6-.4-1.4.8-.4.5.2.7-.1 1.2l-.2.3-.1.1-.2.2-.4.2q0 .2-1.4.1a2 2 0 0 1-1.1-.9q-.3-.5-.3-.7v-.6l.1-.4.2-.4.1-.3c.6-1 1.6-2 2-2.9.3-.4-.2-.2 0-.5q.2-.6.6-1l.4-.6-.1.4V9c0 .2-.4-.2-.3.3v.5q.2.1.5.7.2.3 1.2.6 1.2.2 2-.3l.4-.5h.1v-.1.1l-.2.3-1.2 1.8-1.6 2.6-.8 1.3-.5.8-.3.4v.1l-.3.2a3 3 0 0 1-1.3.6q-.7.1-1.8-.5-.8-.8-.8-1.3v-.2l-.1-.5v-.5l.2-.7.5-1 1.3-1.9a16 16 0 0 0 2-3c.5-.9 0-.8 0-1.3v-.3 1.2a3 3 0 0 0 1 1.6q.8.6 1.4.5 1.1 0 1.3-.2l.4-.2-.6.2-.5.2s.5-.6 0-.5 0 .5 0 .5L61.7 12c-.1.2.2.3.1.4l-3.8 5q0 .2-.2.3l-.1.2-.3.1-.4.3h-.1a3 3 0 0 1-3-.8q-.6-.8-.7-1.3v-.8l.2-.5V15l.2-.3v-.2l.3-.3.3-.4q.1.1.4.1l.1-.2c.9-1 1-1.9 1.6-3q.6-1.5 2-2l.7-.9.6-.6.5-.4-.1.2-.1.4q0 .1 0 .8a2 2 0 0 0 2.6 1.5l.2-.1.2-.1.2-.1q-.1.6 0 .7c-.8 1.3-1.6 2-2.6 3l-.6.7-2.5 3.6-.1.1-.3.3h-.1l-.1.2-.5.3c-.3 0-.8.3-1.8 0a3 3 0 0 1-2-2v-1l.2-.4v-.1l.1-.3.1-.1 1-1.5q0-.2-.2-.2c.2-1 .6-.2.8-.3.7-.3 1.2-.5 1.7-1.5 0-.2-.3-1.5 0-1.9.3-.6.5-.1.8-.7l.1-.5 4.2-4.5c.3-.3-.4-.2 0-.6l.6-.4 1.1-.6 1.6-.1q.6-.1 1.6.5A4 4 0 0 1 68 5.2c-.3 2.6-1 3.6-1.4 4.6l-.1.2c-.2.5-.3.1-.4.2-.6.4-.3 1.4-.4 1.6q-.9 2.8-2 5-.8 1.4-1.5 3.2c0 .2 0 1.7-.8 2 0 0-.8.3-.7 1 0 0 .5-.2.2.4-.3.5-.6 1.6-1.3 2.2q-.2.2-.8.7l-.2.8c0 .1.5 1.7-.4 1.8-.2 0-.9-.4-1 .7 0 .2.4 0 .3.5-.2.7-.9 1.6-1 2.6 0 .1.2 1-.4 1.3q-.2-.2-.5 0-1 2-2 3.9c-.3.4-.6 0-1 .4a5 5 0 0 0-1 2c0 .5.9.3.5 1l-1.4 3-.3.3-.2.3-.2.2-.5.5c-.3.1-1 .8-2.6.5q-1.4-.2-2.1-1.3-.6-.8-.7-1.4V42l.2-.4v-.2l1.5-3 2-3.7c.3-.5-.1-.2.2-.9 1.3-2.6 3.4-7.2 5-9.2 1.2-1.6.4.8 1.2-.5q.3-.3.2-.7V22q.2-1 .7-1.8l.4-.7.2-.3v.1l-.1.5v.5l.3.6q0 .3.8 1c.4.4 2 .8 2.7.4l1.1-.6.3-.3.1-.2c-.1.3.3.2.2.4l-1.4 2.5q-.1.4-.1.7L57.9 27s0-.6-.4 0c-.5 1-1.4 2-1.8 3.2 0 .4.4.6-.3 1.1-.2.1-.7-.4-.6.7 0 .2 0 2-.9 2.3-.2.1-.9.3-1 .8q.2 0 .2.3l-1.8 3.5c-.2.3.4 0 .1.5-.6 1.3-1.5 2.9-2.3 4-.3.5-.4 0-.4 0l-.3.3c-.3.3 0 .7-.1.9l-.8 1.5-.5.8-.3.4-.2.3-.3.3-.3.3-1 .5a3 3 0 0 1-3.3-.6c-1-1-1-2-1-2q0-.5 0-.8v-.6l.1-.2v-.3c.2-.4-.2-.2-.1-.3 0-.9.3-.1.5-.5l1.7-3.3c.2-.4-.4-.1-.2-.5q1.5-3.2 3.1-6.3c.2-.3.3 0 .4 0 .7-.4.5-1.5.6-1.7.1-1 .5-1.1.8-2l3.1-6.8 1.2-2.4.7-1.6v-.3 1.1l.1.3.5 1c.3.5 1.7 1.4 2.7 1.3l1.5-.4.6-.4.1-.2-.3.4-2 3.2q-2 3.2-4 6.7c-.1.3.3.2.2.5q-2.5 4.4-4.8 8.7c-.2.2.3 0 .1.5l-1.5 2.6c-.3.2-.2-.4-.5 0l-1.7 2.8c-.2.4.5 0 .2.5l-1 1.6c-.1.2-.1.5-1.1 1.3l-.8.5c-.3.1-.7.5-2.3.3-.8 0-1.9-.7-2.4-1.4q-.7-.9-.7-1.5v-1.3c.2-1.2.3-1.3.5-1.7l1-2.4 3.2-5.4c.1-.2.9 0 1-.7l-.5-.3q3.4-6.6 6.9-13l1.3-2.6c.1-.2-.4 0-.2-.4l.1-.3v.3l-.1.4a3 3 0 0 0 .3 1.6 3.5 3.5 0 0 0 3.8 2l1-.4.2-.2-.2.2Q51.5 25.8 49 28h-.4q-.4-.2-.7.2c-.1.1-1 1-1 1.4 0 0 .4 0 .2.3l-.6.8-2.8 4.4c-.1.3-.3-.2-.4 0l-.6 1.5q-.5 2-1.4 3.8c-.5 1-.9.5-1.6 1 0 0-.3.8-.6.7-.8 0-1.6-.7-2.4-.7l-.3.4-.1.4v-.2l-.2-.3v-1c0-.2-.5 0-.5-.4q.2-.3.2-1c0-.4-.4-.3-.2-1.2m25.1-27.2c-.6.3.2 1.1.4.4zm1-2.6q.7-.5.7-1t-.6-.2c-.8.5-.3 1.4 0 1.2m1 3.3c-.9.7.5 1.6.7.5 0-.1-.7-.6-.8-.5M40.3 38.4l-.2.5c.3.4.6-.7.2-.5m20-24.8c.2-.2.4-1.2 0-1-.3.3-.5 1.2 0 1m-.4 4-.1.3c.3.1.4-.4 0-.4M49.8 19l.8-.4.6-.1q.4 0 .4.4 0 .8-.3 1t-.6-.6l.2.2h.3l-.2-.2v-.1l.2-.1V19l-.3.1q-.5.7-1 1.2l-.3.1-.1.1h-.2l-.5-.3v-.5h.1l.1-.1h.1v.5l.2.1h.1v-.3zm9.6-8.8-.3.5c0 .4.8-.4.3-.5m-10 27.6-.6 1.2c.2.8 1.4-1.4.6-1.2m10-24.4q0-1.1 1-1.5zM29.3 68q0 .2-.3 0v-.3l-.2-.1v-.4q0 0-.2 0-.3-.4-1.1-.6-.8 0-1.4-.7t-.5-1q-.2-.6 0-.9.2-.6.5-1l-.3-.2c-.2-.4.2 0 .4 0q.7-.3.7-.5l-.2-.3.2.3h.5l-.3-.4h.1l.3.3c.3.3 0-.2 0-.2-.1-.3.2 0 .3-.2l.1-.2h.3l-.2-.3q.1-.2.4-.1l.3.3c.2.2.7.6 0-.5l.3.2.2.3-.2-.3q0 0 0-.2l-.1-.3c-.2-.4.2.1.2.2q.4.1.3 0l-.2-.3h.3l.2.3-.1-.3.2.3c.3.3-.1-.2-.1-.2 0-.2.4.3.4.2l-.2-.3q0-.3.5 0l.2.2-.1-.2c0-.1.3.3-.1-.4.3 0 .3-.4.9 0l.2.3-.5-.8.4.5.5.5-.7-1 .2.2.4.5-.5-.8h.1l.3.3.6.8-.5-.7q.1-.2.2.2l.2.2c.3.3-.3-.5-.4-.7l.4.4-.1-.2q.2.2 0 0c0-.1-.3-.6 0-.3l.2.3h.1l-.2-.3.3.3-.1-.3-.1-.2c0-.1.5.2.5 0l-.1-.3c0-.2.4.6.6.8l-.3-.5-.2-.3.1.1.2.2.3.5c0-.2-.5-.7-.5-.8-.1-.4.3 0 .3 0q.1 0 .2 0 .1-.1-.2-.5l.7.9q0 .2 0 0l.3.3-.3-.5q-.6-.9-.5-.8l.2.3.5.2.2.3q.1 0-.5-.8l.8 1-.3-.5-.5-.8.2.3-.2-.5.4.2q.7.9 0 0h.2l.2.2c.3.4 0-.1 0-.1-.2-.3.2 0 0-.3l-.1-.2.2.3q.2.1.2 0c0-.1-.4-.6-.1-.3l.2.3.2.2.4.4-.3-.5q0 0 .2 0l-.2-.2h.1v.2q.1.3.2.2v-.1s.1.4 0 0c-.3-.2-1-1.6-1-1.2l.5 1c0 .3-.3-.1-.3.2l.3.5-.2-.2v.2l-.2-.2q.2.2 0 .2l-.6-.7.5.7.2.3.2.3-.2-.2c-.3-.2 0 0-.2 0l-.3-.4h-.2l.2.3.2.3c-1.1-1.2.1.1-.2 0l-.6-.7q0 0 0-.1l-.5-.7.6.7c.5.5 0-.1 0-.2q-.1-.2-.1-.3l-.5-.7s.8.8.2 0c0 0-.6-.7-.1-.2 0 0 .4.4.2.1l-.2-.2v-.3l.5.4c.2.3 0-.2.2.1l.7 1-1-1.6h.3l-.1-.3q.1 0 .2 0l-.2-.6c.4.6.4.4.4.4l.2.2-.2-.4q0-.2 0 0l.2.3.2.2h.2q0-.2.7-.2.6-.2 1.5.8a2 2 0 0 1 0 2l-.2.2-.2.1h-.2l.5.7c.1.3-.2-.2-.3-.2q-.2-.2 0 0s.2.5 0 .2l-.2-.3c-.2-.1.3.5.4.8l-.3-.4-.1-.1-.3-.4q-.8-.9 0 0 .6 1 0 .2l-.4-.5.4.7c.1.3-.2 0-.2 0l.2.3q0 0-.1 0l.2.3H36v.2l-.5-.2.3.5-.3-.3-.1-.2.1.2h-.1l.2.3q0 .4-.1.3l-.2-.3q-.2.1.1.5.1.4-.3-.2l-.3-.3.3.5c.2.4 0 0-.2 0v.6c.3.3-.1-.3-.2-.4q-.5-.6-.4-.3l.6.9-.1-.1.1.2h-.3q.2 0 .2.3h-.2l-.2-.3c-.3-.4 0 .2 0 .2.1.3-.3-.1-.2.2 0 0 .3.6 0 .1 0 0-.4-.5-.2-.1l.2.2q0 .2-.2 0c0-.1-.4-.6-.2-.2l.2.3-.4-.4.3.3c0 .2-.1 0 0 .4 0 0 .4.5.1.2l-.2-.3q0 0-.2 0l-.4-.5q-.2-.2 0 0l.4.8q-.1.1-.4 0 0 .1 0 .2c0 .1 0 .4-.4 0l-.6-.7.4.7q0 .2-.1 0l.2.4h-.1q0 .1 0 .2l-.2-.2-.2-.3q-.1-.2-.1 0c0 .1.3.6 0 .3 0 0-.4-.6 0-.1 0 0 .4.7 0 .3l-.3-.4.2.2v.3l.2.3H32l-.2-.3c-.3-.3 0 .2 0 .2q0 .1 0 .1l.1.3-.2-.3h-.2l.2.3q0 .2-.3 0l-.2-.2q-.2-.3 0 0v.2q.2.2 0 0 0 .4-.4.3h-.5l.2.4q0 0-.3.2l.3.3h-.1l-.3-.3q0-.1 0 0l.2.2.2-.1.3-.7V65l-.6-.3.6.2.2-.8q0-.2-.3-1.2a3 3 0 0 0-2.6-1.8H28V61l.2.3v.6-.6q.2 0 .3.2v.4c.2.1.2-.1.3.2l.2 1.2v.4l.2 2.6V68m5-7.2c-.2-.3.5.7.4.4zm.1-3.3c.3.4 0-.3-.3-.6zm-.1.5c.2.3-.7-1-.6-.7zm-5.4 5.4q0-.5 0 0m5.3-4.8q.2.2-.1-.3-.2 0 .1.3m-1.7 2q.3.4 0 0m1.3-1.6.9.9-.4-.4c-.2-.2.4.5 0 .2zm-.3.7q.4.4 0 0m-2 .8h-.2q.6.7.1 0m2.7-2.3q-.3-.5 0 0"/><path fill="#fff" d="M33.4 46.1v-.7h.2V45h.2v-.6l.6-2.5.2-1h-.1q-.1 0 0 0 .4-.5.3-.9-.1 0 0 0l.2-.3v-.2l.2-.4-.2-.1.1-.2h.2q.2-.1 0-.2 0-.5.3-1l.2-.6.3-.7-.1-.1q.1-.6.5-1h.1c.2-.1.6-.4.1-.7l.3-.4q.2 0 .2 0l-.1-.1v-.5q-.1-.2.2-.2.2-.2.3-.5h-.2q0-.5.3-.6h.2q0-.1 0-.2c.3 0 0-.1 0-.1q.1-.2.4-.4-.1 0-.1-.1.1-.6.5-1 .1 0 .2 0 .2-.1 0-.2.2-.2 0-.4v-.2q.4-.9 1-1.6h.1q.2 0-.2-.4h.3l.3.1c.2 0-.4-.3-.4-.4h.5l-.3-.3.2-.3h.1l.5.1c.3 0-.2-.2-.3-.2l.2-.1h.1c.3 0-.2-.2-.2-.3-.2-.2.3 0 .3-.1V26l.1-.3q-.2-.1 0-.2 0 0 .2 0l.1-.1q0 0 0-.2v.1l.2-.2V25q0-.1 0-.2.3-.5.8-1l-.2-.2.5.2q-.3-.2-.2-.3-.1-.2 0-.1h.2q.1 0 .2 0l-.3-.2q.1-.4.6-.7l.2-.2V22l.4.2q.2 0 .2 0V22l-.3-.3h.1l.6-.4h.1q.2 0-.1-.4.3.3.5.2l-.1-.3q-.3-.3-.2-.4l.1.1q.1-.1 0-.4l.5-.3q.4.2.1-.1l.2-.2h.1q.2 0 0-.1.3-.3.4-.6-.1 0 0 0 .4 0 .4-.3t0-.2h.1c.2.1 0 0 .2 0q.4.2.4 0L47 18l.2-.2v-.1q0-.2.4-.5 0-.1.2-.2c.2 0 .6.5.6.3 0-.1-.5-.8-.1-.6q.3-.3.6-.8l-.2-.2h.2l.2-.3h.2v-.2h.5q-.3-.1-.1-.3l-.1-.1v-.2q0-.1.1 0l.2-.1h.1l.4-.2-.1-.1q.1 0 0-.4c.6.5 0 0 .3 0l.2.3v.4l-.2-.2q-.3 0-.1.2-.1.2-.2.3.2.2.2.4c-.1 0-.5-.2-.3.2 0 0 .3.3 0 .2H50l.1.2-.1.1-.1.2h-.3q0 0-.1 0-.2-.2-.5-.2l.6.5-.5.5h.1q0 .2-.3.3v.4q-.4-.1-.4.2h-.1q-.1 0 0 .1c.1.3-.3-.1-.4 0l.2.3q0 .1-.2 0-.1 0-.2.2 0 .1 0 .2l-.1-.1q-.2 0 .1.4h-.3q-.2-.2-.2-.1-.4-.2 0 0 .3.3-.1.2-.3-.1-.3 0l.2.3q-.1.2-.4.3l.1.1-.1.2v.1q0 .3-.4.5l-.2.4-.5.4.1.2q0 .2-.3.1-.1 0 0 0l-.2.2h.1q0 .6-.4.8v-.1q-.2 0-.1.4v.1h-.3l-.3.2.1.2q0 .4-.3.4l-.2.4-.1.2q.1.2-.1 0h-.3l.3.5h-.1v.1q-.2.2-.3.5t-.3.5h-.1q-.2 0 0 .1-.2.5-.5.8.2.2 0 .2H42q.1 0 .1.2l-.1.2q-.3 0-.2 0s.3.4 0 .3q-.2-.2-.2 0l.1.1v.3q.2.1 0 .2h-.1q-.2 0-.3.3h-.2q-.2 0-.2.2l.4.2q-.2.5-.6 1v.3q-.1.5-.5.8-.2-.1-.4-.1l.2.3-.2.4.2.1-.2.3q0 .2-.2.3 0 0-.1 0t-.1.3q.1 0 0 .1-.2 0-.1.1s.3.3 0 .3h-.2v.5h.1l-.2.5H39q-.2 0 0 .1l-.1.4q.2 0 0 0-.2.2-.2.4 0 .4-.2.7h-.2q-.2.1 0 .2v.2l-.5 1.2-.6 1.3h.1l-.1.6-.1.4.1.1v.3H37l-.1.3h.1q0 .6-.4 1.2h-.2l.2.1-.2 1.8h.1q0 .5-.2.9h-.2v.2h.2v.8H36l-.1.6q-.2.2-.6.2h-1.2q0 .1-.2.1l-.1-.1h-.3v-.1q-.1 0-.2-.2m10.4-22.7c-.2 0 .2.3.1.1zm5.2-6.9q-.2 0 .1.3.2 0-.1-.3m.5-.8c-.2 0 .3.4.3.2zM35.3 46.1q.3 0 0 0M50 14.9q-.1 0 0 .1 0 0 0-.1m-8.7 11.4q.3 0 0 0M51 13.9c.1 0-.7-.4 0-.5l-.1.1v.1h.3q.1 0 .1.2zm-7.7 9.2q0 .2 0 0M40 28.3l-.1.1q.4.2 0 0m5.3-8.5q0-.2.1-.1zM45.4 48.6l.6-.9h.2l.3-.4h.1l.5-.8 2.6-4.3.7-1.2-.1-.1c0-.2 0 0 .2-.2l.7-1.3q-.2-.2 0-.2h.1l.3-.4.1-.3.4-.7q0 0 0-.2l.1-.3h.2c.2 0 0-.4 0-.4l.9-1.6.5-1.2.7-1.3q0 0 0-.1.3-1 .9-1.8h.1c.3-.3.8-.8.4-1.3l.6-.7.2-.1-.1-.1.3-.9h-.1q0-.4.3-.4.3-.5.5-.9h-.1q.1-.7.6-1.2h.1q.2-.1 0-.4h.2q.2-.1 0-.2.3-.4.6-.7-.1 0-.1-.2.4-1 1-2 .2 0 .2 0 .1-.1 0-.2c0-.3.4-.5.2-.8Q61 19 62 17.4h.1c.3-.2 0-.3 0-.6l.3-.1h.3c.1 0-.5-.3-.4-.5h.2v-.1q.4 0 .4-.3-.1 0-.2-.2v-.1l.2-.5h.2q.3-.1.5 0c.3-.1-.2-.3-.2-.4l.2-.2h.1c.3-.2-.2-.2-.2-.3q0-.3.5-.5 0 0 0-.1l.1-.5q0-.1 0-.4.2 0 .2 0l.3-.4q-.1 0-.1-.1h.2l.2-.5h-.1v-.4q.5-1 1.1-2.3H66c0-.3.3 0 .5 0q-.3-.2-.2-.4-.2-.2 0-.2c.3 0 .1-.2.2-.2h.3s-.4 0-.3-.2c0-.5.5-1.2.6-1.5l.2-.6c.2-.4 0-.3 0-.5s.4 0 .5 0v-.1h.2q0-.4-.2-.5-.4 0-.3-.3h.1q.3-.6.3-1.3h.2q-.1-.4-.5-.3.5-.1.2-.6h-.3l-.2-.1q-.2.3-.4.2 0 0 0-.1l-.2-.1h-.3l-.8-.2q0-.4-.3 0l-.4.1h-.1q-.3-.2-.2 0-.5.4-.8.8 0 .2 0 .2 0-.2-.2 0-.3 0-.6.4 0 .3-.2.4l-.1-.1c-.2 0 0 .1-.2 0q-.4 0-.6.3v.3l-.3.3-.8 1q0 .1-.3.3c-.3 0-.6-.5-.8-.1 0 .1.4.9-.2.8q-.4.6-1 1l-.2.3q0 .1 0 .2l-.2.1-.6.6h-.2q0 0-.2.3h-.6q.1.3 0 .5l-.1.2v.1q0 .2-.3.2l-.3.1q0 0-.1 0-.4 0-.7.4v.1q-.2.2-.2.5c-.6-.4 0 .1-.4.2q-.2 0-.2-.3l.2-.2v-.5c0-.2.4.2.4.2q.3 0 .2-.3l.5-.5q-.1-.3 0-.4c.2-.2.6 0 .6-.5 0 0-.3-.3 0-.3q.3 0 .4 0v-.2l.2-.2.3-.4h.3c.2.1.2-.2.3 0q.2.2.5.2l-.5-.6.4-.4q.3 0 .5-.4 0 0 0-.1.1-.2.5-.5l.2-.6q.4 0 .6-.3.2 0 .2 0 .2-.2 0-.3c0-.3.5 0 .7-.2l-.1-.4q0-.2.1 0 .4 0 .4-.3t.2-.4l.1.1c.3 0 0-.3 0-.5q.2-.2.5-.2.2.1 0 .2 0 .2.2 0 .5.2.1-.1-.3-.4.2-.3.3.2.4 0 0-.3 0-.4.2-.4.7-.6v-.2l.5-.3q0 0 0-.2L65 .6h1.4l.7.4.7.5q.3.1.5.1c.3.1.3.8.3.9s-.2-.3-.2-.1q.1 0 .2 0v.8h.2q.2 1 0 1.8h-.2v.7q0 .5-.3.6 0 .3-.3.5t0 .2q0 .7-.3 1l-.3.8-.1.5h.1q-.1.1-.2 0-.4 0-.4.4l.3.4-.1.2v.1l-.5 1 .1.2-.5 1H66q-.2.1 0 .2-.3.9-.7 1.6.1.2-.2.5-.2 0-.1.1 0 0 0 .1 0 .3-.2.5s-.4 0-.3.3c0 0 .4.4 0 .4q0-.2-.3 0 .1 0 .2.2l-.2.5q.1.2 0 .3H64l-.4.8h-.3l-.2.4c0 .1.4.1.3.3q-.4 1-1 2v.1c-.2.6-.6 1.5-1 1.9-.3.3-.2-.2-.4 0l.1.5q-.1.4-.4.8l.2.1-.3.5v.2l-.3.4q0-.1-.2 0l-.3.6q.2.2 0 .3-.2-.2-.2.1s.2.5 0 .5l-.4.1.2.1-.3.8q0 .6-.3 1l-.2-.1q-.2.1 0 .2 0 .3-.3.7h.1q0 .1-.2.1l-.3.6q0 .1 0 .2 0 .6-.6 1.2h-.1q-.3.2-.1.3 0 .3-.2.4-.4 1.3-1.1 2.4t-1.3 2.4h.1l-.9 1.9.2.1-.3.5q0 0-.2 0l-.3.6q0 0 0 .1-.4 1.2-1.1 2.2h-.3l.2.2-.2.4q-.7 1.4-1.5 2.8h.1q-.4.9-.9 1.5l-.3.1q0 .1 0 .4l-.8 1.3H48q-.2.5-.8 1-.4.2-.6 0h-.3l-.6-1h-.1l-.1-.2-.2-.1v-.4M67.6 7.3c-.2.1.2.3.2.1zm-9.2-.1q.3-.2-.1-.3-.2.2 0 .3M57 8.5c.3 0-.1-.6-.2-.3zm-10 41.1-.1.1q.1.1 0 0m8.7-39.8q.2-.1 0-.2 0 .1 0 .2m8.5 3.9q.1 0 0 0m-10.8-1.8c.3-.3 1-.2.5.2v-.3q-.2.3-.5.5zM67 7.2v.1q.2 0 0 0m-5 10.5v.3c.1.2.4-.2 0-.3M65.6 2q0 .3-.3 0z"/><path fill="#fff" d="M59.8 25.4h-.2l-.1-.2h-.1v-.1h-1.5q-.2 0-.4 0v.1-.1H57v.1-.1h-.5v.2-.2q-.2 0-.2.1-.2.1-.4.1l-.3.1h-.4v.2h-.5v-.1c-.2 0-.4-.3-.3.3l-.3-.1v-.2.2l-.3.1v.2-.1h-.3v.1h-.3V26q0 .1-.1.1c-.2-.3-.1 0-.1 0h-.3q-.1.3-.6.1V26q0-.2 0 0l-.2.1v.2q-.6.1-1 0V26q-.2 0-.2.4v-.3l-.1-.3v.6-.2h-.1q0-.3-.2-.2v.4h-.1v-.2l-.2-.5v.4-.2c-.2-.2 0 .3-.1.3 0 .3-.1-.2-.2-.2v.1h-.1s0 .3-.1.1v-.1h-.2v.1-.2h-.1v.2h-.8v.1-.4l-.1.2v.2-.1q0-.1-.1-.1v-.3.4q-.3.1-.5 0h-.2v.1c-.2.1-.1-.4-.1-.5v-.2l-.2.3v.4-.2q-.2 0-.4-.2V26l-.1.4v-.6l-.1.3q-.1.4-.2.3v-.1q0 .1-.2.2l-.2-.2q0-.5 0 0h-.2V26q0-.2 0 0l-.4.1s0 .3 0 0q0-.1-.2-.1 0 .2-.1 0v-.2q0-.4-.1-.3l-.1.2h-.1q-.2 0-.4 0V25s-.4.8-.3.4l-.4-.2-.2.3v-.2h-.2V25l.1-.3-.3.2H43l-.1.1q-.2 0 0-.1v-.1l.1-.2v-.2l-.2.1q0 0-.2 0c.5-.5 0 0 0-.1l.3-.3v.1l.4-.2-.3.3c-.2.2.1 0 .1 0q.2 0 .2 0h.3s-.3.3 0 0q.3-.1.2 0h.1v.2q0 0 0 .1l-.3.5.4-.7.1.1v-.1h.2l.2-.1q0 .3.1.2v.2l.1-.2c.1-.2 0 .4 0 .4l.2-.3v.1q.2-.1.2 0v.1l.1-.3v.2q0 .1 0 0v.3q0 .5 0 0 .2-.5.2 0v.2l.1-.3q0 0 .2 0 0 0 .2 0v-.2l.3.1h.2l.2.2.1-.3.1.2v.1q0 .1 0 0h.1v-.2q.3 0 .4 0v.1l.2-.2.1.2.2.1V25q.1-.1.3 0h.2v-.2q0 0 0 .2.1.3.2.2v-.4q0 0 .1 0h.3v-.1h.3v.2-.1q.3-.2.5 0v-.1s.1.3.2.1v-.1c.1 0 .2.3.2.1v-.1q0 .2.1.2v-.2l.1-.1s0-.3.1-.1v.1h.2l.1.3q0 0 .1 0v-.4h.5l.3-.1h-.2.3c.2.2 0 .4.2.4v-.3q0 0 .2 0v-.2h.1V24l.2.1v.1h.2v-.1s.2.3.1 0c0 0 0-.4.1-.2l.1.3V24h.2v-.2q0 0 .2 0 0 .1 0 0h.3v-.2.1h.2v-.2h.3v.2q.2 0 .1-.1 0-.1.1-.1l.7-.2h.7v-.2l.5-.1V23h.1v.1h.2v-.2h.7v.3-.3l1-.1v-.2h.4l.1.3v-.3h.5v.2h.4l.1.6v.1l.1 1v.9m-11.9 0v-.2zm-4-.5.1-.2zm-.4 0c0 .2.4-.4.3-.3zm16-1.5q0-.1 0 0m-16.4 1.3q0 0 .2 0zm6.6 1.2q0-.2 0 0m-7-1.8c0 .1-.4.6-.4.4l.2-.1q-.2 0-.2 0zm5.2 1.9q0-.3 0 0m3 0q0-.3 0 0m-4.9.2q0 .3 0 0M20.7 60.8l1-.7q0 0 .1 0l.5-.6q0 0 .1 0 .4-.4.7-1 1-1.5 1.6-3.2c.2-.4-.4-1.4-.9-2.7l-.1-.9q.4-1.6 1.3-2.3v-.1q0-.2.3-.2l2-1.4c.2-.2-.1-.2.2-.3v.1q.5-.1.7-.4l.6-.3 1-.5q0 0 0-.2l.6-.3h.2c.2.2.5-.2.5-.3l.6-.3 2-.7L36 44l2.4.1V44a10 10 0 0 1 3.2.9q0 0 0 .1c.6.4 1.5 1 2 .6q.8.3 1.2.8.1.2.2.3 0 0 .2 0 .6.3 1.2.7h.2c.2 0 .3.5.4.5q.4.8 1 1.4 0 0 .1 0l.2.4.6 1.5c0 .2-.2 0-.2.2q.1.3.3.6h-.1c-.2.2.1.3.1.4q.1.7 0 1.5 0 0 .1 0 .2 2-.3 3.6 0 .2-.1 0-.2.4 0 .5v1.3L47.4 61q-1.5 1.7-3 2.7 0 0-.2 0c-.5.3-.2.3-.4.8h-.5l-.2-.1c-.3 0 .2.5 0 .7h-.4c-.2.2-.5 0-.6.3 0 0 .3.3 0 .5l-.7.5q0 0-.1 0h-.7c-.3-.1.1.3 0 .4l-.3.2-.2-.1c-.4.2 0 .3 0 .5-.2.4-.6.2-1 .4q0 0 0 .1l-.4.4-.2.2s0 .4-.3.4q0 0-.2 0l-.6.4q0 0 0 .2 0 0-.2 0l-.6.3q-.2.2 0 .2l-.3.3-3.3 2.1q0 .1 0 .2c-.3.2-.2-.2-.5-.2q.2.3-.2.4v.2q0 .2-.3 0-.2.1-.3.2 0-.2-.2-.2.1.2.1.4-.8.6-1.9 1.1l-.3.2-.9.5c-.6.2-.3.3-.6.5s-.3-.2-.4-.3h-.2q-.4.1-.5.4c0 .2.2.4-.2.5v-.1l-2.1.5-.1-.1c-.6 0-.3.2-.6.6q0-.6-.6-.4-.3 0-.3.3l-.3.1c0 .3.2.5-.3.5v-.1c-.5 0-.5.3-1 .4l-1.4.2q-.2-.5-.5 0l-.8.2h-.1v-.1q-.3.1-.3.2-1 .2-1.7.6 0 .2-.2.1.2-.2-.1 0-.5 0-1.2.3 0 .2-.5.2v-.1c-.2-.1-.2.2-.4 0q-.3-.3-.9 0v.2l-.1.1-.7.1q0 .1 0 .2L12 80q-.4-.4-.2-.8l.5-.9s0-.5.3-.7.7.4.9-.2c0-.3-.5-1 0-1.2l.8-1.4.5-1q-.1-.1-.1-.4l.2-.2.5-1.2.2-.2.1-.6q.3-.1.6-.4-.3-.2-.2-.6v-.4c-.2-.3.2-.5.2-.6q.2-.1.2-.4.2.1.2 0l.5-1.1v-.2q.1-.4 0-.8c.8 0 0-.2.4-.5q.1 0 .3.2l-.2.5.2.4q-.2.3-.4.2-.4.2-.2.5l-.2 1q.2.3.2.5c-.2.5-.7.5-.5 1.1 0 .1.4.2 0 .4 0 0-.4.2-.3.4l.1.1-.2.5q0 .3-.2.7l-.3.2q-.1.3-.3.5c-.2 0-.3-.3-.6 0q.4 0 .7.3l-.7 1.5-.2.4q0 0 0 .1l-.5 1-.3 1q-.4.1-.6.7h-.2q-.1.3 0 .4c.1.4-.5.2-.6.6v.1h.3q0-.1-.2-.1l-.2-.2q-.4 0 0-.1 0-.2.4-.2v.1q.4-.1.5-.5.3-.2.6 0 .1 0-.1.1 0 .2.4 0c0 .4.3.3.1 0h-.1q0-.5.6-.2c.2 0 .1.3.5 0q.1 0 .2-.3.7-.3 1.3-.4.1 0 0-.2.4 0 .9-.2 0 0 0-.1l.3-.1 1.6-.3 1.1-.3q1 0 1.8-.3.3-.2.3-.3.5-.3.8 0h-.1l.8-.3v-.1q1-.5 2-.9v.2l.9-.7q.3-.3.8-.2l.8-.3q.1-.1 0-.3c.5-.5.9-.5 1.5-.9l1-.7.5-.3v-.1c0-.3.1 0 .2 0q.3 0 .7-.2l.1-.6.3-.1v-.2l1.5-.9q0 0 0-.2l1.4-.9.1.1q.4-.1.3-.3l1.2-1q.5-.2.9-.7s.2-.5.5-.4q.1 0 .3-.2-.1 0 0-.1.1-.2.6-.5.3 0 .5-.2s0-.7.3-.5c0 0 .3.3.4 0q0-.1 0-.2l.5-.7q0-.1.3-.3 0 0 .2 0l1-.8h.3q.4 0 .5-.4c.1-.1-.2-.2 0-.4l1-1 .5-.4.3-.3.3-.4v-.3q.5-.5.5-.9 0-.9.3-1.5c.2-.5.3.2.4-.2l-.3-.6q.1-.7.1-1.3h-.1v-.9l-.1-.2V53q.1 0 .2 0l-.1-1q-.2 0-.2-.3s.3 0 0-.2c0 0-.5-.3-.4-.5q.1-.2.1-.4h-.1l-.6-.8q0 0-.2 0L45 49q0-.1 0-.1 0-.3-.3-.2-.3-.1-.7-.5l-.1.1q-.1 0-.1-.2l-.9-.5q0 .1-.1.1l-1.9-.8v-.2l-.3-.1h-.2l-.6-.1q-1.7-.5-3.4-.4-1.9 0-3.6.8v.1l-.2.1-2.4 1.3q0 0 0 .2l-.8.4q0 0-.1 0-.5 0-.9.4.1 0 0 .2-1.4 1-2.4 2h-.3.2v.1l.6 1.3c.3.7.7 1.7.3 3l-.2.7q0 0 0 .2-.2 1.3-1.1 2.5-.1-.1-.4.1l-.2.6q.1 0 .1.1-.6 1-1.6 2 0 0-.1 0c-.6.4-1.2 1-2 1h-.1c-.4 0-.3-.2-.6-.4h-.3v-1.1H20v-.1l.2-.3v-.2h.2zM30 73.4c.2 0 0-.4-.1-.2zM14.9 75q-.2 0-.2.2t.3.1c.2 0 0-.4-.1-.3m1-2.7c-.3.2.3.5.3.2zm5.7-9.7h-.2c0 .2.4 0 .2 0m-4.9 7v.3c.2 0 .2-.4 0-.3m22.4-1.9h.1q-.2 0 0 0m-21.4-2.2.2-.2h.2v.2l-.1.2h-.3zl.1.2h.2-.2q0-.3 0-.2h.3l-.1.1-.1.2-.4.2zm12.7 8.4h.1c0-.2-.3 0-.1 0m14.3-10.5.3-.2c0-.4-.6.1-.3.2M20 78.2q-.2.3-.5 0z"/><path fill="#fff" d="m16.7 69.1.5-.7h.1l.1-.1h.1q0 0 .1 0l.4-.3q.9-.8 2-1.2l.7-.2v-.2h.7q0-.2.1-.2v.2h.8V66h.1v.2c.2.2.2-.1.2-.1q.4-.2.8 0l.6-.1h.6V66l.8.1v.2c.2.1.5.4.6-.2h.1l.3.2v.2l.2-.1.5.2v-.1q.3.1.2.2v.2l.2.3.2-.1.2.5q0 .1.1.1v.1q-.1.2 0 0 .1.3.1.5 0 0 .1 0l.4.8h-.1q-.2.2 0 .1c.2.1 0 .3.4.2q.2.6.5 1v.3l.3-.3v.5l.2-.5v.2s0 .4.1.2c0 0 0-.4.1-.3h.2v.2l.2.4v-.4l.1.1v.2c.2.2.1-.3.1-.4.1-.2.2.2.3.3v-.1h.2q0-.2.2-.2v.2h-.1.2q0-.2 0-.2v.1h.2v-.3l.9-.5v-.1l.2.3v-.3l-.1-.1q0-.1.1 0 0 0 .1 0l.2.2-.2-.3q.1-.3.6-.3l.2-.2q.2 0 0-.2c0-.2.3.2.4.3l.1.1V69q-.2-.3-.1-.3h.7q.2 0 0-.4.2.4.4.4l-.1-.3q-.2-.4 0-.4v.1-.3l.5-.1q.3.4.1 0l.2-.2v.1q.2.2.1 0 .2-.3.3-.4s-.1-.3 0-.1q0 0 .1 0h.3q0-.2.1-.2l.2.1q.3.4.3 0V67l.1-.1v-.1q0-.2.4-.2 0-.1.2-.2c.1.1.4.7.5.5 0 0-.4-.8 0-.5q.3-.3.5-.4v-.3h.1l.3-.1h.1l.4.2q0-.3 0-.4V65q0-.1.1 0t.2.1v.2h.4v-.1l.2-.2c0 .7 0 0 .2 0v.5h-.2v.3c-.1.2-.2-.3-.2-.3 0-.3 0 0-.1 0l-.2.1s.1.4 0 .4c0 0-.2-.4-.2 0 0 0 .2.4 0 .2q-.1-.2-.1 0v.1l-.2.1-.2-.1q0 0-.1 0l-.3-.5.4.7-.5.2v.2H39v.4q-.3-.2-.4 0l-.1-.1q0 0 0 .2c0 .2-.3-.3-.4-.2l.2.3q0 .2-.2 0 0 0-.2 0 0 .2 0 .2l-.1-.1v.3q0 .2-.2 0 0-.2 0-.1 0-.2-.2-.1-.3-.4 0 0t0 .1l-.3-.1.1.3q0 .1-.3.2v.1l-.1.1v.1l-.4.2-.2.3-.5.1v.3q0 .2-.2 0v-.1l-.2.1.1.2-.4.4-.1-.2-.1.4H34v.2q0 .3-.3.2l-.2.3h-.1v.2l-.1-.2H33l.2.4h-.1v.1l-.4.2v.2l-.4.2v-.2q-.2.1-.1.2l-.2.1-.6.2h-.6s-.1.3-.2 0q0-.2 0 0v.1h-.3q0-.3-.2-.2s-.1.5-.2.2V72l-.1.2h-.3q-.1.3-.2.1v-.1q-.3 0-.6-.3v-.2l-.3-.3-.2.2H28q-.5-.4-.7-1h-.1q-.4-.4-.4-.9.2-.1.3-.2H27q-.1 0-.2-.3h-.1v-.2h-.2V69h.2l-.1-.3q-.2 0-.2 0s.3-.2 0 0q-.2 0-.2-.1l.2-.2h-.4V68q0-.1 0 .1v.2-.1l.1-.1H26v.2l-.6-.2v-.1q0-.2-.1 0t-.2 0q-.4.2-1 0h-.9v.1l-.7.1v.2h-.1l-.1-.1H22v.1l-.8.2-.1-.2v.2l-.9.5.1.1-.4.3-.2-.2v.2l-.2.4-.2-.1q0 .1-.2.2l-.5-.2h-1.2c-.1-.1 0 .2-.2 0l-.1-.2-.2-.1v-.2q-.1 0-.2-.3m17 1 .2.2zm5.4-3.8q-.2 0 0 .3.2 0 0-.3m.5-.5c-.2 0 .2.5.2.4zm-21 4q.2 0 0 0M40 65.4v.1q0 .1 0-.1m-9 5.7H31q0 .1 0 0m10.2-5.8c-.2 0-.3-.5 0-.5l-.1.2c0 .1.1-.2.2 0zm-8 4.4q.2 0 0 0m-4 .9q-.1.2 0 0m6.3-3q0 0 .1 0zM15.2 76.1v.4H15v.2H15v.2l-.1 1.3v.4q0 0 0 .1v.2l-.1-.1-.3-.1h-.2q0 .1 0 .1h-.1v-.1l.1-.1v-.3h.1q0 0 0-.1v-.5l.1-.4V77l.1-.6h.1q.1-.1 0-.4v-.2h.1v-.3h-.1q0 0 0-.1l.1-.3v-.3q0 0 0-.1.2 0 0-.1l.2-.2h-.1v-.7h.2q0-.2-.2-.3l.1-.5v-.3l.1-.2h.2q0 0 .2 0v.2l.2.2h-.3q0 0 .2.1l-.2.2h.2v.2l-.3.1h.2v.1q-.2 0 .1 0 .1.2-.1.3v.1q.2 0 .1.1v.3l.1.1v.7h.2-.3l.2.1v.1h-.1.2v.7h.2l-.3.2.1.1h.2v.4H16q0 .2.2.1-.3 0-.3.2h.4v.5l.1.2q0 .1 0 .1 0 .1.2.2h-.3v-.2h.1q.3 0 .2-.2h-.1V77q.4 0 .4-.1s-.5-.1-.3-.2v-.9l.2-.2h-.2v-.1h-.1q0 0 0-.1l.2-.1V75l-.1-.2c.3 0 0 0 0-.1h.2v.1h.2l-.2.1v.3h.3c0 .2-.3.2 0 .3q.1 0 0 0 0 0 0 .2v.2H17v.1h-.3.4v.6l.1.2q-.2 0-.1.2 0 .1-.2.2h.2l-.1.1v.2q-.1.1.1.2H17l-.2.1q-.2 0 0 0t0 .1q0 0 0 .1v.4q-.4.2-.6 0l-.2-.2v-.1h-.1V78h-.1v-.3l-.2-.2V77h-.1q0 0 0-.2.1 0 0 0l-.2-.5q0 0 0-.1-.2-.2 0-.2v-.2q-.2-.1-.1-.3l-.1-.2v-.1H15l.2-.2h-.3v-.4h-.1v-.3q0-.1 0-.1v-.5q-.1 0-.1-.1 0 0 0-.1v-.2q-.2 0 0-.2l-.1-.2q-.1 0 0 0v-.3h.2l.1.2q0 .1.5.2.3-.1.3-.2l.1-.2h.3l-.1.5v.7h-.3l.2.1v.6h-.1v.2q0 0 0 .1.2 0 0 .2v1.4h-.1q0 0 0 .1v.8l-.3.8h.1l-.1.6v.2l-.2.2q0 0 0 .1v.2l-.1.1-.4.2H14l-.3-.3v-.2l-.1-.5v-.3h.1-.1v-1h-.1V77h.2v-.1h-.2v-.4h.2V76h.3V76h.9zm1.7.3zm-.1-.5h.2zm-.1-.5zm-.1-.4q.2-.3.3-.1h-.2q.1 0 0 .1zm-1.2-2.4v-.2h-.2v.1h.2m1 4.9"/><path fill="#fff" d="M17.7 72.8v.9h-.1V76l-.3-.2q-.2 0 0 0l.3-.2.4-.5.5-1v-.2q.4-.4.4-1h.1l.1-.3.1-.3.2-.2q.3-.1.5.1v.5l-.1.3v.3h-.1q-.1.1 0 .3l-.3 1.1-.1 1v.3h-.1v-.1l.4-.2.4-.5c.2-.2.6-.5.4-.8l.3-.5h.1v-.1l.2-.5V73l.1-.2.4-.6q0-.5.3-.8v-.3h.2v-.1l.2-.6.2-1.3h.4q-.2 0 0 0-.1.4-.1.6l-.4 1.9-.2.5q0 .3.2.4l-.1.2H22q.2 0 .3.2v.1q-.2.2 0 .2 0 0 .2 0h.2v.2l.2.2v-.2h.3q.2 0 0-.2 0-.2.3-.2l.1-.4v-.2h.1l.2-.3-.1-.1.2-.3-.1-.3q.2-.7.3-1.6c-.1-.2 0 0 .1-.2q0 0 0-.2h-.1q0 0 0-.1l.1-.2h.1V69h.2v.1l-.2 1.1-.1.5v.3q-.1.1-.2 0v.1H24v.3q.3 0 .2.2l-.3.9q-.1.2 0 .3-.1 0-.2.2v.3q.3 0 .2.2v.9q-.1.3 0 .1h.3q.3.2.2 0l.3-.3.2-.2q0 0 0-.1l.4-.5v-.2h.2q.3 0 .3-.4v-.4l.4-.8.1-.3q.2 0 .4 0v-.2h-.3q.3 0 0 .2V73l.2.2h.3l.4.2v-.1l.1-.2V73l.2-.2.1-.1h.1l.2-.2h-.1v.1h.1q0 .2.2.3-.4.3 0 .2l-.2.2V73l-.3-.1q0-.2.2-.2l-.1-.2q.1 0 .2 0v.6l-.2.2-.2.3-.2.2h-.8q-.2 0-.5-.2v-.1q-.2-.3-.1-.3v-.4h.3-.4l.1-1v-.6.2l.3.2h.6v-.1h.1q-.2 0-.2.3h-.1q0 .1 0 .2 0 0-.3.2l.1.2v.1l-.3.3v.3q-.1 0 0 .3l-.2.2q-.1 0 0-.1-.2 0-.2 0-.3 0 0 .1.1.1-.1.3h-.3l.1.3q-.1.3-.4.5v.1l-.3.3q-.3.3-1 .2l-.3-.1-.2-.4v-.2q-.2-.3-.1-.5l.1-.8-.1-.2.1-.4v.1q.2 0 0 0l.1-.4v-1h.1V71q0-.2.2-.3l.1-.4v-1l.1.2.2.2.3.2q.5-.1.5-.2v-.1.3h.1q0 0-.1 0-.2.1-.1.3l.2.3v.2l-.2.8h.1q0 .4-.2.8-.1.1-.1.2 0 .6-.6 1.3 0 .2-.3.3l-.2.1v.1q-.4.3-.9.1l-.3-.1s-.4.1-.4-.1q.1 0-.1-.2h-.1l-.3-.4-.1-.3q-.1 0-.1-.2v-.8h.2v-.4l-.2-.1v-.2q0-.7.4-1.3v-.8l.2-.4.2-.4.2-.2.4-.1q.4 0 .6.3l.2.4v.1c-.1.4-.2 0-.2.2l.1.3v.7l-.1.5v.1l-.2.3q-.2.3-.3.5 0 0 0 .2l-.1.4-.2.1-.1.6-.3.6q-.1.1-.1.2l-.2.4v.1q-.2.2-.3.4v.1q0 .5-.4.8h-.1q-.2 0-.1.3l-.2.3-.2.3q-.5.4-1.4.4l-.6-.3-.3-.7v-.3l.4-2 .3-1.3V72v.2q0 0 0 .4.3.4.8.4l.5-.1.2-.3v.1h-.1l-.2.4v.1l-.6 1.6h-.2l.1.1q-.2.8-1 1.5-.2 0-.5.3h-1.1l-.3-.4v-.1h-.1q-.2-.9-.1-1.3l.1-.2v-.2h-.1v-1l.1-.9q0 0 .3-.2h.6q0-.1.1-.1l.1.1h.1v.2zm8.5-.7q.1-.1-.1 0zm.3 1.4c0-.2-.4 0 0 .1zm-9.9-.5v-.1m12.1.4-.1.1q-.3-.2 0-.2v.1-.2zm-4.3-3.6q-.2 0 0 0M22 72V72c-.1-.1-.2.2 0 .1m1.8 2.6"/><path fill="#fff" d="m16.6 73-.1-.4-.3-.3H16l.1-.1.3-.2 2.1-1.5 1.6-1.2.6-.4 1.8-1.4.3-.1.4-.4.3-.2h.2l.1-.1h.6q.2.1.3.5v.5l-.2.2-.3.4-1.8 1.8-2.3 2.3-.5.7V73l-.2-.5q-.3-.2-.4-.1h-.1q1.4-.8 2-2.4v.2h-.4l-.7.1-1.7.5-.5.2-.3.3v-.5l-.2-.1q-.1 0 0 0 0-.2.2-.2l1.3-1-.1.1v.4l.3.2-1.2.2H17l-.2-.1q-.1 0-.2-.4 0-.4.2-.5t.2 0h.1l.2-.1 1.8-.1 2.5-.2h.2l-.3.3v.4l.2.2h.1q-.5.1-1.5.8h-.2l-.2.1-.4-.3V70h.1V70l.2-.2 1-.6h.3l.2.2v.5l-.2.3-.7.8-2 2.3q0 .2 0 .2c-.5.7-.4.4-.8.8l-1 1V75c1.2-.1 2.5-1.4 3.5-2.3v.4l.2.2h.2l-.2.2-.3.1c-.6.6 0 .2-.4.5l-.2.2q0-.2-.2 0l-1.6 1.4-1.1 1-.3.3-.3.2-.2.2V77h-.2l.2-.1 1.2-.7.9-.6.2-.2 1.6-1 .3-.1a87.5 87.5 0 0 1 4.2-2.7l.1-.1h.2l.2.2v.5h-.2l-.4.3-.5.3-1 .5-3.3 2.1v-.3H19l.2-.1 1.1-.5L24 73l1.6-.7.2-.1h.4l.2.2v.3q-.1.2-.2.1l-.8.6-3.2 2c-.3 0 0 0-.2.1l-.6.4q-.8.4-1.3 1v-.1l-.2-.3.8-.1 1-.5 2.3-1q1-.3 1.7-.9h.3l.3-.3v.4h.2-.2l-1 .4-1.3.5q-1.8.8-2.6 1.5l-2.7 1.4-.7.3.1-.2q0-.4-.3-.3l1-.3.2-.2h.1l3.6-2 .2-.1a59 59 0 0 0 3.7-1.8l-.1.1v.2q0 .3.2.2h.1l-1.3.5-1 .4c-.4.1 0 0-.3.2l-5.5 2c-.4 0 0-.1-.2 0-.9.2-1 .4-1.7.8h-.1l-.3.2v-.3h.2l.2-.1 1-.3q1.5-.4 3-1h.3l.8-.4-.1.3q.1.3.2.2h.1l-1.3.5-4 1.6-.6.3v-.2l-.1-.2 2.6-1.6c.6-.3.3 0 .3 0q.7-.5 1-.6l.6-.3 3-.8 1-.2q1.1-.3 2.2-1 .8-.3 1.2-.9v-.7c-.5-.5-1.6-.8-2.5-1.2q-1.6-.8-2.4-1.6h-.1q-.5 1 0 2.4a2 2 0 0 0 1.9 1.5h.2q.3-.4.2-.7V72l-.2-1v-1.4q.1-.2.2 0l-.1-.4q-.2 0-.2 0l-.2.6v.2l.6.4.4.3.2-.2V70l-.2-.2h-.2l-.6-.4-.3-.1q-.4-.2-1 .1l-.1.5v.2c0 .4-.2.1-.2.2l.2.3q0 .2.3.3h.5q.4 0 .4-.2v-.3l.5-1.3q0-.1.1-.1v-.3q-.3-.2-.4-.1c-.4 0 0 .1-.3.3l-.3.3q-.3.7-.1 1.6l.3.4h.3l.8.2h.2v-.6q0-.3-.4-.4l-1-.1H24q.1-.1-.3 0-.7.1-1.6.8-.2 0-.3.3l-.2.4v.6c.3.6 1.3.6 1.6.6h.8l.7-.2a3 3 0 0 0 1.4-1q.2 0 .2-.5 0-.3-.3-.5h-.1q-.1 0 0 .4 0 .3.3.7.4.5 1.4.6.4.1.7-.1v-.6q0-.3-.4-.4h-.5v.2q.4.5 1.3 1 .3 0 .2 0l.3.2h.1l-.2.1q0 .1 0 .2v.1q0-.1-.3-.4 0 .3-1-.4-.3-.2-.2 0l-.9-.6q-.2-.3-.4-.3h.2l.2.2c.1.2-.4 0 .2.3.2.1-.2-.3.3 0h.1l.1.1v.2h-.9v-.1h-.1v-.4h.4l1.3.3q.9 0 1.7.5h.1l.1.2v.2h-.6l-.5-.1-1-.2h.1v-.3h.6l.2.2v.2h-.1l-.3.1-.7.2-1.1.2h-.3v-.2h.6v.2l-.2-.1-.5-.2-1.4-.4q-.3-.1-.5-.7v-.2q0-.8.2-.8 0 0 .1 0l.2-.4.1-.2.3-.9-.1-.8h-.2l.2.2.4.7q0-.1 0 .1l.5 1 .6.7h.2l.2-.5-.1-.7q-.2-.3-.6-.1 0 0 0 .4 0 .3.3.5v-.2l-.2-.4c0-.3.1 0 0-.2v-.6h-.1l.1.2.1.1.2.2-.2-.5v-.3q0-.2-.6-.7h-.3l-.2.2v.2l-.5 1.1-.3.8c-.1.3.3 0-.5 1.1h-.1c-.9 1-.9 1.3-2 2.3q-.4.3-1 .5-.2 0-.3-.2v-.7q.6-1.6 1.7-2.6h.1q0 .2.1.1a1 1 0 0 0-.4.8V72l.3-.4 1.1-1.1.2-.2h.3v.3l-.3.3-.2.2q0 .1 0 0-.7.7-.8 1l-.3.4-.2.2-.1.1H22v-.1l.2-.2.3-.3v.2h.1l-.1.2-.2.2v-.1l.1-.2.3-.3.5-.7v-.1h.3v.2l-.1.2-.6.6q.1.1-.5.5s.4-.4-.3.1l-1 .7q-1.1.8-2.4 1.1-.6.3-1.7.4V75h-.4V75l.1-.1.2-.1.4-.1 1.6-.6v-.3h-.1l-.4.2-.4.2-.5.4h-.1q.2-.6.5-1.2-.2-.2-.4 0H17q-.3.1-.1.2l-1.2.8h-.1q1.4-.7 3.3-1.1l-.8.3-1.8 1h-.2c.8-.2.3.3 1.6-.2l.5-.1c.7-.3 1.5-1.1 3-1.4l3-1.1 1.8-.6q.2.1.5.4l.2-.2v-.2q0-.2-.2-.3h-.1v.5l-.1.5-.3.2h-.5l-.4.3h-.3l-1 .2-3.8.8-1 .2-1.5.6-.5.1h-.1v.2l.3.1 1 .2q.1 0 1.6 0 .1 0 0-.1h3q.8.2 1.4.2h.3l.5.1q1.2.2 2.6 0l.6-.5c.4-.2.1-.1.2-.2l1.2-.5 1-.6h.2V73h-1.2v-.2h.2l.3-.2s.3 0 0 .3h-.2l-.1.1v-.2h-.1 1.1l.2.2-.1.3-.9.7-.3.2H29c-.5 0-1 .6-1.4.8h-.1q-1.4.3-2.5.2h-.7l-1.2.1c-1.7 0-2.3-.3-3.8-.2-.4 0 0 .2-1.1 0H18l-.5-.1-.5-.1h-.3v-.2l-.2-.4.2-.2.3-.2v-.1l.3-.1 1.3-.4 2.7-.8h.5q1-.2 1.6-.2c.4 0-.3.2.6.1l.1-.4.9-.2.7-.1h.3l-.1.2v-1.2l.4-.2h.5v.1l.2.5v.7q-.3.2-.5.1-.6 0-.6-.3.2 0 0 0l-1.3.5-.2.1-3.2 1.2-2.8 1.1q-.2 0-.6.2l-.9.2-.5.2h-.6q-.1 0-.2-.3v-.5h.1l.3-.3.6-.2.6-.2c.9-.4.4-.4.7-.5l.7-.3h.4q.1 0 .4.3v.5l-.2.2H19q-.8.1-1.8.4l-1 .5c-.6.3-.2 0-.4.1h-.4q-.2 0-.3-.2v-.4a4 4 0 0 1 2.4-1.3h.4l.2.5q0 .4-.2.8l-.2.3v.2-.4l-.4-.2h-.3.3l1-.5h.1v-.1h.4q.1 0 .3.4v.3H19v.1H19v.1l-.5.3c-.6.4-1.7.8-1.7.7h.1l.1-.3v-.4l-.3-.1h-.2q.4 0 0 0h.1q.1 0 .4.3l-.1.4h-.1.3q0-.3 0-.1l-.3.1V75q0 0 0-.2l-.2-.1h.4c.1.1.9 0 .6-.1H17l2.1-.5c.5 0 .2.2 1.3-.4l.4-.4.2-.3 2-1.5v.1l.1.2.3.1h.2v-.1l-.7 1-.3.4-.3.1-.5-.3v-.7l.4-.3v-.1h.1l.4-.1q.3.1.3.4v.3l-.6.6-.2.2h-.4l-.3-.3v-.2l.1-.4.2-.2.2-.3v-.1l1.3-1.5v.4q.2.3.4.3h.2l.2-.1-1.7 1.6h-.2l-.3.1-.4-.3V72l.2-.6.4-.5.1-.1h.4q.3 0 .4.4v.3h-.1v.1l-.1.1c-.5.5-1.3 1.5-1.4 2.3v.2l-.1-.1-.4-.2q1.4-.9 2.5-2.4l1-1.5.4-1.2v-.3q.2 0 .4-.4a1 1 0 0 1 .9 0q.7.4 1 1.2v.7l-.1.4.1-.3v-.6q0-.4 0 0v.6l-.1.3h-.6l-.4-.3v-.2h-.1v-.1l.2.1.5-.1v-.4l.4 1.5v.1l-.2.3q-.1.1-.4.1h-.3v-.1H26l-.4-.7-.1-.5.1-.5.5-.3h.5q.3 0 .7.4.4.6.3 1.1v.5q0 .3-.6.6h-.8q-.6-.3-.9-.8l-1-2v-.3q0 0 0-.4l.5-.4h.3l.2.2.2.4v.9q-.6 1.5-.5 2.2l.1.2.4.1.5.2.8.4h.3l.1.1q0-.1.3.4l-.1.5-.2.1H27l-.4.1H26l-.1-.2-.2-.4.2-.4h.1l.4-.1 1.3-.2q.4-.1.5-.2l.2-.1H28v.3q-.2.1 0 .4 0 .2.2.3h-.6l-.2-.1-.2-.2v-.6l.3-.3H29l.5.2h.2-.2l-.3.5q.1.5.2.5l.1.1-2.8-.7q.2 0 .4-.3v-.6l-.2-.1h.3-.1l-.3.2-.1.6.2.3-.4-.3q-.2 0-.5-.4l-.2-.2V71l.5-.3h.3l.1.1.3.2.4.2 1.7 1h.1l.3.2h.1l.2.2v.5q0 .3-.2.4l-.3.1h-.4l-.2-.2v-.1L26.9 72l-.2-.5v-.4q-.1-.1.4-.5h1l.3.1.6.7v1.1q0 .1-.3.5l-.2.1q-.6.3-1.2.2c-.5-.2-1.3-.2-2-1l-.4-1v-1l.5-.5h.6q.3 0 .4.2.6.4.6 1.2v.9l-.3.3c-.6.7-1.7 1.5-2.9 1.4-.8-.1-1.5 0-2.6-.6q-.4-.5-.3-.5-.3-.5-.1-1.3l.4-.7.3-.3q1.2-1.2 3.1-1.1.4 0 1 .2.5 0 1 1 .2.4-.1 1.2a1 1 0 0 1-1 .4l-1-.2q-.6 0-1-1l-.2-.8c0-.1-.3-.7.2-1.7q.5-.5 1.2-.6h.5q.3 0 .6.4l.2.8v.6q0 .7-.7 1.4-.2.5-1.2.6l-.7-.1q-.3 0-.6-.4-.4-.7-.2-1.6 0-.2.2-.5 0 0 .3-.5c.4-.3 1.3-.7 2-.3q0 .2.2.3l.8.6c.2.2 0-.3.3.3l.2.3q.2.3 0 1l-.1.4-.2.2-.6.2q-1.1-.2-1.6-.8l-.2-.2-.2-.4v-.6l.1-.5.2-.4q.2-.3.8-.4.7.1.8.4l.1.2v.2q.3.3.2.5l.2 2L26 73q0 .4-.5.8l-.1.1q-.6.3-.8 0h-.4a3 3 0 0 1-1.9-1.7l-.2-.2-.3-.5c-.2-.8-.5-1.7.3-2.9q.3-.3 1-.4.6.1.5.3l.2.1.3.3.6.4q.5.5 1 .6l1.5.6q.7.1 1.5 1.1.4.7.2 1.6-.5.7-.8.9l-.8.5h-.1c-.6.3-1.4 1-2.5 1.1l-3.9 1-1.6.7-1 .6c-1.8 1 .3-.4-1 .4l-.5.3-.3.2h-.1l-.3.1h-.3q-.2 0-.4-.4v-.5l.2-.1.1-.2.4-.2.4-.2 3.7-1.5c.3 0 0 0 .2-.1l1.5-.6h.3l.4.2q.2 0 .3.6l-.1.3-.3.3h-.2l-.5.3-.5.2-.7.2-2.3.7c-.1 0 .4-.2-.2 0l-.7.2-.9.1h-.5l-.1-.2q0 0-.3-.2v-.5l.2-.3 1.6-1c.3 0 .3-.2 1-.4h.2l.7-.2c.1-.1 1.4-.8 2.1-1q.4 0 1.1-.2h.2l2.5-1 1-.4q.2 0 0 0v-.1h.2l.2-.1h.1q0 0 .4 0 .4.2.4.7v.4l-.3.3-.3.2-.9.4-2.8 1.5c-.5.2-.2 0-.2 0l-1 .5-2.4 1.2-.5.3c-.3.1 0 0-.1.1l-.6.2-.3.1h-.3s-.2.2-.6-.2v-.9l.1-.1.2-.1.1-.1.6-.4 2-1c.3-.2-.1 0 .2-.3a44 44 0 0 1 6-2.5h.4a1 1 0 0 1 .5 1l-.2.3-.4.3c-.4.3-.2 0-.3.1-.5.3-1.3.8-1.4 1l-.6.2-1.3.6-1.5.7-1 .3q-.4.2-1.3-.1l-.4-.7v-.5l.3-.3q.8-.7 1.6-1.2l4-2.4.7-.4v.1l-.2.3.1.5.3.3h.4q.2 0 0 0l-.5.3h-.2l-4.5 2-1.4.5h-.8l-.3-.5V75l.2-.1.1-.2.3-.3.4-.3 1-.6 1.8-1 1-.6.8-.5-.1.3v.4q.1.3.4.4h.4v.1l-1.4.9-5.6 3.6-1.1.6c-.3.2.2 0-.3.3H16l-.2.1h-.2L15 78a1 1 0 0 1-.3-.9l.1-.3.2-.2v-.1l.8-.6 1-1c.3-.2 0 .2.2 0l2-1.7.4-.4c.4-.3-.2 0 .3-.3l.4-.2.2-.1h.3a1 1 0 0 1 .7.6v.3q0 .3-.2.3v.2c-1.3 1-2.2 2.3-4.5 2.6h-.4a1 1 0 0 1-.6-.7v-.7l.2-.1.1-.2.7-.8 3-3.4.2-.3.3-.3.4-.3q0 .1 0 .4 0 0 .2.3l.3.1h.2l-.6.6.1-.1V70l-.3-.4h-.7c.6-.3 1-1 2.5-1l.2.1.3.3q.2.4 0 .8l-.4.3H22l-1.2.1h-1.3l-2.1.2h.1l.4-.4v-.6l-.3-.3h-.3.2l.4-.1h.5l.6-.1q0-.1.5.4v.8l-.3.2-1.6 1.3-.6.2h-.4l-.2-.1-.3-.3s-.2-.5 0-.7q.3-.6.8-.8l.7-.4c1-.2 1.7-.6 2.9-.7h.4q.4 0 .9.4t.2 1.1a6 6 0 0 1-2.6 3.2h-.1l-.3.1-.5-.1a1 1 0 0 1-.4-.7l.1-.3.2-.3.2-.3.5-.5 1.6-1.6c.2-.2.2 0 .7-.5.1-.1 1-1 1.1-1.3l.1-.2.8-.8v.3q0 .3.3.5h.5-.1l-.8.7-3.1 2.5c-.3.2 0-.1-.2 0l-.7.5-1.5 1-1.3.9-.4.1h-.3l-.3-.1q-.2 0-.3-.6a2 2 0 0 1 .7-1.2c.9-.7.6-.3 1.2-.6l.8-.5q0 .4.2.6l.3-.1-.6.5q0 0 0 .2-.4.1-.7.5l-.3.4zm12.8-.5h.3-.1l-.2.2v.3h.1v.1l-.1-.1q0 0 0-.4l.1-.2h.1-.2m-3.3-1-.1-.2-.5.2h.5-.1l.2.1q.2 0 0 0m-6.4 1.8c1-.2 1-.6 0-.2q0 .1 0 .2m-3.3-.2-.4.2h-.2l-.2-.3v.2h.2l.2.1q.6-.1.4-.2m6.1 1.8h-.8c.3.1 1.2.1.8 0m2-3.6-.3-.2zm5.1 1.3q.8-.2 1.5 0c-1 .4-1.3.4-.1-.3v.1q0 .1 0 .2h.1l-.3.1h.3v-.1l-.1-.1v-.1q-.2.2 0 0-.9.4-1.8.5H29q-.2 0-.1-.1v-.1h.3q.1 0 .1.1v.1h-.1l-.2.2.1-.2h.1v-.1H29h.1zm.1.2-.5-.2zm-6.1.1-.4-.4-.3-.6h-.1s.1.5.4.7q.4.5.4.3m-1.3-1.7.1.2h.2l-.4.7V72l-.2-.1.1-.1.3-.2-.4.3.2.1.4-.6h-.1z"/><path fill="#fff" d="M26.3 68.3v.6h.1q0 .2 0 0v.1h.1l.1.1q0 .3 0 0v.1h.1v.2q0 0 .1 0v.1h.1q0 0 0 .1 0 0 .2 0H27l-.1.2.2-.2-.1.1v-.1l-.1.3.1-.2v.1-.1q.1 0 0 .1.1 0 .1 0t.1 0v.2-.1.1-.1h.1q0 .1 0 .2l-.1.1v-.1q.3-.1.2-.2v.2h-.1q0 0 .1 0l-.1.2v-.1l.2-.2q0 .3 0 .1 0 .1 0 0h.1v.1l-.1.2.1-.1-.2.4.2-.2.2-.1v.1l-.1.2v-.2h.1q0-.2 0 0v.1h.1c-.2.2 0-.1 0 0l-.1.1-.2.2.1-.2-.2.2q.2-.2 0 0v-.1l.2-.3-.3.4h-.2l.1-.1q0 0 0-.2v.2-.1l-.1.1v-.1l.1-.1q.2-.1 0 0v-.1.1H27v-.1q0 .1-.1 0 0 .1 0 0h-.1v-.2l-.1.2h-.1q0-.2 0 0h-.1v-.1q-.1 0 0 0v-.1l-.1.1v-.2q.2 0 0 0v.1h-.1q0 0 0-.1V70v.1h-.1v.1-.1q0-.2 0 0H26V70v.1H26q0-.2 0 0V70h-.1v-.1l-.1-.1h-.2v-.2h-.2q0-.2 0-.2v-.1l.2-.2V69l.5-.4.1.3v-.5zm-.7.7q0 .1 0 0m2.3 1.7.1-.2zM44.2 44.3v.2h.1l.3.1h.2v.1q.1 0 .1 0t.1 0h.2v-.1q.2.3.1 0l.1.1v-.2l.1.1h.1q0 0 .1 0h.1v.1-.1h.3v.1-.2.3-.3.1l.1.1v-.2.1l.1.2v-.2.1-.1.1-.1h.3v.1-.2.1l.1.2v-.3h.1v.3q0 0 0-.1v-.2l.2.1v.1-.2.3-.4.1-.1h.1q0 .4 0 0v.1h.1v-.1q0 0 .1 0v.1l.1.2v-.1q0 0 .1 0l.1.3v-.5.1h.1l.1.2v-.4.2h.1v-.1c.1.3 0 0 0 0v.2l.1.2v-.2.3q0-.2-.1 0 0 .2 0 0v.1l-.1-.1-.1-.3v.6-.1l-.1-.1v.1-.2.2q0-.1-.1 0V45v.2-.3q-.2-.1 0 0 0 .3-.1 0v.3h-.2V45v.1q0 0-.1 0V45v.1H47v.1l-.1-.1q0 .2 0 0l-.1.1q0 .1 0 0v-.1.2h-.1q0 .1-.1 0 0 0-.1 0v.1q0-.2-.1 0 0 .1 0 0v.1h-.1v-.2h-.1v.2H46v-.2.1q0 0-.1 0v.1q-.1 0-.1 0 0-.2 0 0 0 0-.1 0v.1q0-.2 0 0H45v.2-.1h-.2v-.1h-.3v.2l-.1-.2v.1h-.1v-.1h-.1v-1.4m2.6.7v.1m.9-.2v.1zm0-.1.1.2zm.3-.2v-.2zm-1.9.2q0 .2 0 0m1-.2q0-.2 0 0M43.8 41h.1l.1.2h.9q0-.1 0 0h.5q0-.2 0 0l.2-.1h.4v-.2h.3v.1q.1.2.1-.1h.2v-.1q0 0 .1 0h.3q.1 0 .1 0h.4l.1-.2h.5v-.1h.1v.2q0 0 0-.2l.2.1q0-.1 0-.2v.1l.1.2v-.2.2q0-.1 0-.2 0-.2.1 0h.1q0-.2 0 0h.2v-.1h.3v-.1l.1.2v-.2l.1.2v-.2q0 0 .2 0 0 0 0-.2l.2.3V40l.2.1v.1-.2l.1.3V40q0 0 .1 0h.1q0 .2 0 0h.2q0 .2 0 0h.1v-.1h.2v.1l.1.1V40q.2 0 .2 0 0-.2.1 0l.1.2V40l.3-.1v-.1h.1l.2.2v-.3q0-.2 0 0l.2.1v-.2c.1.4 0 0 0 0l.1.3v.2-.2q-.1-.2-.1 0v.3q-.2-.2-.2 0v.1h-.2v-.4.4h-.2v.2q-.2 0-.2 0v-.1.1l-.1-.2v.2q0 0-.1 0 0-.1 0 .1H51v-.2q-.1-.3-.1 0 0 0-.1 0v.1q0 0-.1 0v.2h-.4v.1q0 0-.1 0v-.1.1q-.2 0-.2 0l-.1.2v-.1h-.2q0 0-.1 0v.1h-.1v.1l-.1-.2v.3h-.2q0 0-.1 0l-.3.1q0 .1 0 0 0 0-.1 0 0 .2-.1.1 0-.2 0 0t-.1.1h-.1l-.1-.2v.2H48v.1h-.3v-.2.2h-.2v.1h-.2v.1l-.2-.1v.2H47q0-.2 0 0h-.2v.1h-.3l-.3.1h-.4v.1h-.2v.1H45l-.5.1q0 .1-.2 0h-.1q0 0-.2 0h-.2V42l-.1-.1v-.6h.2q.2.1.2.4l-.1-.3-.1-.1h-.1l-.1-.1V41m5.8-.3v.1m2-.6q0 0 0 .2zm.1-.1q0 .2.1.2zM44 42q0 .1 0 0m8.4-2.3q0-.1 0-.2zm-2.8.7q0 .1 0 0m-1.4.3q0 .2 0 0M44.5 38.7h.1v.1h.1v.1h.1l.4.2h.2V39q.2.1.2 0h.2q.1.2.1 0h.5v-.2h.2v.1q.2.2.2-.1l.1.1v-.2q0 0 .1 0 0 0 .1 0h.6l.1-.1q.3 0 .4 0 0 0 0-.2l.1.2v.1-.3.1l.2.1q0-.1 0-.2l.1.3v-.2.1q0 0 0-.2l.1.1q0-.1 0 0h.2v-.1h.3v-.1l.1.2v-.2.2-.2q.1 0 .2 0h.1V38l.1.3V38v.1h.2v.2-.3l.1.3v-.3h.1q0 0 .1 0 0 .2 0 0h.3V38h.1v.1q.1.2.2.1V38h.1l.2.3v-.3h.2V38h.1l.2.2V38v.1h.2v-.1c0 .3 0 0 0 0q0 .1 0 .2v.2-.2.1q0 .1 0 .2-.2-.1-.2 0 0 .2 0 0v.1h-.1v-.1l-.2-.3.1.4h-.1v.1h-.1v.1q0 0-.1 0v-.1c0 .2-.1-.1-.2-.1v.2-.1q0-.1 0 .1 0 0-.1 0v-.1q-.1-.4-.1 0v-.2q0 .1 0 .2h-.2v.2h-.2q0 0-.2 0 0 .2 0 0l-.2.1q0 .2-.2 0 0 .2-.1 0l-.1.1v.1l-.1-.2v.3H49l-.2.1q0 .2 0 0 0 0-.1 0s0 .3-.1 0v.2h-.1q0 0-.1 0v-.2h-.1v.2h-.2q0 .2-.3 0v-.1.2h-.1v.1h-.2v-.1q0 0-.1 0v.1-.1l-.1.1v.1h-.2v.1q0 0-.1 0h-.9v.2H46v.1h-.4v-.1.1H45v.1h-.2V40l-.1.1h-.2l-.1-.1v-1.4m5 0v.1m1.8-.4v.2zm.2 0v.1zm.5-.3q0-.2 0-.2zm-2.5.4q0 .1 0 0m-1.3.2q0 .3 0 0m2-.5q0-.2 0 0M46.2 35.7h.2v.2h.7q0 0 .2 0 0 0 .2 0h.6l.1-.1h.2v-.1h.2q.2.2.2-.1h.1v.1l.2-.1v-.1q0 0 .2 0h.1q0 0 .1 0h.4l.1-.2h.5v.1-.2l.1.1v.2-.3l.2.2v-.2l.1.3v-.2q0 .1 0-.1 0 0 .2 0h.2V35h.4V35v.2-.2l.1.2V35q0 0 .2 0l.1-.2v.3h.1v-.3.1h.2v.1q0 0 0-.2l.2.3v-.4.1-.1h.2q0 .2 0 0h.1q0 .2 0 0h.2v-.1q0 0 .1 0v.1l.2.1v-.2h.2l.2.3v-.2h.2v-.2h.2l.1.2v-.3q0-.2 0 0h.1q0 0 .2 0c0 .3 0-.1 0 0v.3-.1q0-.1 0 0h-.1v.3s-.1-.3 0 0q0 .1-.1 0l-.1.1-.1-.1-.1-.3v.4q0 0 0 .1h-.2v.2q0-.2-.1-.1V35q0 0 0 .1l-.2-.2v.2h-.1v.1q0-.1 0-.1l-.1-.1q0-.3 0 0-.1 0-.2 0v.1l-.1.1q0 0-.1 0l-.1.1h-.2v.1-.1h-.1v.1l-.2.1q0 .1-.2 0 0 .2-.2 0v.1h-.1v.1l-.1-.2v.3h-.2l-.1.1q0-.2 0 0h-.3q0 .2 0 0v.1H51q0-.1 0 0 0 .2 0 0-.1-.2-.1 0v.1q0 0-.1 0h-.1l-.1-.2v.3h-.3q0 .1-.3 0v-.1.1q0 0-.2 0v.2h-.1v-.1h-.1q0 .1-.1.1h-.1v.1h-.3v.1H49q-.1 0-.1 0l-.3.1h-.4v.1l-.2.1q0 .2-.1 0h-.1v.1h-.3V37v.1h-.6v.2h-.3V37v.1h-.2l-.2-.1v-1.4m5.8-.3v.1m2-.6v.2zm.2-.1v.2zm-8 2q0 .1 0 0m8.2-2.2v.1m.4-.1-.1-.2zm-2.9.7q0 .1 0 0m-1.4.3q0 .1 0 0M47.5 32h.1v.1h.1v.1h.8q0 0 .2 0h.5l.1.1q.1-.2.2-.1h.2l.2-.1h.3q.1.1.1-.2h.2v.2-.1h.1v-.2q.2.2.2.1 0-.2.2 0 .1 0 .2 0v-.1h.3l.1-.1h.5q0 0 0-.2l.2.1v.2-.3l.1.2v-.2l.2.3v-.3l.1.1q0-.1.1-.1h.2v-.1h.4v-.1.2-.2l.1.2v-.2q0 0 .2 0l.1-.2.1.3V31l.3.1v.1-.2q0 .3.1.2V31h.2q0 .2 0 0h.2l.1-.1h.2l.2.2v-.2h.2l.2.3v-.3h.2v-.2h.2l.2.2v-.3q0-.2 0 0 .2 0 .2 0c.1.3 0-.1.1 0v.3-.1q0-.1-.1 0v.3c-.1 0-.2-.3-.2 0q0 .1 0 0 0 .2-.1.1L56 31l-.1-.3.1.4h-.2v.1l-.1.2q0-.2-.1-.1 0 0-.2-.1v.1h-.1v.2-.1l-.1-.2q-.1-.2 0 0 0 .3-.1 0v.1q0 0-.2 0v.2h-.2v.1h-.2q0 .2-.1 0h-.1q0 .3-.2.2 0 .2-.1 0h-.1q0 .2-.2 0v.1h-.1v.1l-.1-.2v.3h-.2v.1h-.1q0-.2 0 0h-.3v.1q0 0-.1 0 0 0-.1 0 0 .2 0 0 0 0-.1 0v.1q0 .2 0 0h-.2v-.1h-.1v.2H52q0 .2-.3.1v-.2.2h-.2v.1h-.1q-.1 0-.2 0 0-.2 0 0H51v.2H51q0-.2 0 0h-.3q0 .2-.1 0h-.1v.1H50l-.4.1v.1h-.3v.1h-.5v-.1.1h-.5v.1h-.2v-.1H48v.1h-.2l-.2-.1v-.3h-.1V32m6.2-.3v.1m2.1-.7v.2zm.2-.1v.2zm.2-.2v.1m.4 0v-.3.2m-3 .7q0 .2 0 0m-1.5.3q0 .3 0 0m2.4-.7q0-.2 0 0M50.2 28.6v.1h.1v.1h.6q.2 0 .2 0 .2.2.2 0v.1h.2q.1 0 .1 0t.2 0l.1-.1h.2v-.1h.2q.1.2.1 0h.2v-.2q.2.2.2.1 0 0 .1 0h.1q0 0 .1 0l.3-.1q0 .1 0 0 .3-.1.5 0v-.2l.1.2v-.2q0 .1 0 .1v-.2h.1v.1l.1.2v-.2.2q0-.1 0-.2 0 0 .1 0 0 0 .1 0h.1v-.1h.3V28l.1.2v-.2l.1.2V28q0 0 .1 0h.1v-.2l.1.3v-.3.1h.2v.1-.2l.1.3v-.4h.2q0 .3 0 0l.1.1h.1v-.1q0-.1 0 0h.2l.1.2v-.2h.2l.2.3v-.3h.2v-.2.1h.1l.1.1v-.3l.1.1h.1v-.1c.2.3 0 0 0 0l.2.2v.2l-.1-.2-.1.1v.2q0-.1 0 0v.1q-.1 0-.1 0H57l-.1-.3.1.4H57l-.1.2q0 0-.1 0v-.1q0 .1-.2-.1v.2-.1q0 0 0 .2l-.1-.1v-.2q-.1-.2-.1 0 0 0 0 .1 0 0-.1 0v.1q0 0 0 .1h-.4v.1q0 0-.1 0 0-.1 0 0l-.2.1q0 .1-.1 0h-.1q0 .2-.1.1H55v.1l-.1-.2v.3h-.1q0 .2-.1 0-.2.1-.3.1 0 .2 0 0h-.1v.1q0-.1-.1 0v.1H54V29v.2h-.3v.1q0 0-.2 0v-.2q0 .1 0 .2h-.2v.1h-.1q-.1-.1-.1 0 0 .2 0 0H53v.2h-.2q0-.2 0 0h-.2q0 0-.1 0l-.4.1h-.3v.1h-.2v.2-.1h-.2q0 0-.2 0h-.5v.2h-.1V30h-.1v.1h-.2l-.2-.1v-1.4m6.7-.6v.1zm.1-.1v.1zm.5-.4-.2-.2v.1q0 0 .1 0zm-2.4.7q0 .2 0 0m-1.2.3q0 .2 0 0M67.1 5h-1l-.5.1q-.3 0-.6.2-.8.1-1.5 1l-.8.5V7l-.4.2-.3.4q0 0 0 .1l-.2.2-.1.1-.3.4h.1v.2h-.2v.2l-.1.8v.2h.2l.8.1h.8l.1-.1q.6 0 .4-.5l.3-.4V9h-.2v.1h-.3q-.2 0-.4 0v.1l-.3.2-.3.1-.2.1H62l-.5.3v.1l-1 .8q0 0 0 .1-.2.2-.3.4l-.7 1.3q0 0 0 .4h-.1l.1.1h.2v.2l-.2.1q.1 0 .4-.1v.1l.1.2.2-.2.3.1.1.3q0 .1.1-.1h.2v.1q.2 0 .2-.2l.3.2h.4q0-.1.1 0h.3v-.1h.4v-.2l1.2-.8q0-.2.2 0v-.2q0 0 .1 0 .2 0 0 0v.1h-1.2c-.2 0 0 .1-.2.2l-.2-.2h-.1l-.1.2v.3q-.4 0-.7.3h-.1q-.1 0 0 .3l-.4-.2v.2l-.1.1q.1.2 0 .3V14q-.2 0-.3.3l-.4.3q-.2-.2-.2.1l-.2.2h-.1l-.5.5v.1h-.1l-.4.3v.2h-.2q-.3 0-.3.2v.1l-.1.2-.2.7v.3q-.4 0-.4.2c0 .2.5.2.3.4v.2a1 1 0 0 0 .6.5h.2v-.2h.2q.3 0 .4 0h.4l.2.1.2-.2v-.2h.5l.4-.1q0 0 0-.1h.2v-.2c.3.3.1 0 .3 0q0 0 0 .1l-.1.1v.2q-.2.2-.2 0-.2-.1-.2 0l-.3.2-.1.3q-.2-.1-.5 0 0 .3 0 .2h-.3l-.2.1-.3.1-.1-.1h-.3v-.3.4h-.6l-.5-.4-.3-.4v-.2l-.2-.4v-.5h.2l-.1-.2q0-.2.3-.3l-.1-.2.2-.4.1-.2q.2 0 0-.3l.3-.1q0 .2.2 0 .2 0 0 0-.1-.2.1-.2t.2 0v-.2q.1-.3.4-.4 0-.2.2-.3 0-.2.4-.3l.1-.2.4-.3.6-.3v-.2l.3-.1.2-.2.7-.6q.2 0 .3-.2t.4-.1l.4-.1h.2q.4-.2.7 0h.4l.3.2q.1.1.1.5l-.1.4q-.2 0-.3.2 0 .1 0 0H64v.4H64v.1l-.7.4-.6.4h-.3l-.5.1h-1q0-.1-.1-.1h-.4q0-.1-.2-.1-.1.1-.2 0 0-.1-.1-.1h-.5q0 0-.3-.2l-.4-.5v-.8q-.2 0-.3-.2v-.4l.7-1V11q.4-.7.9-1c.2-.1 0 .1.2 0V10l.4-.4v-.1l.3-.2V9l.3-.2.1.1.4-.3.2-.1q0-.1.2-.2h.2q.2-.2.5-.3V8q.3 0 .8 0 .2 0 .2 0h.2l.3.1.4.4c.1.3.1 0 .1.1q0 .4 0 .4v.2l-.3.5-.7.9-.4.1-.3.1q-1 .3-1.7 0-.5.1-1-.5-.3-.4-.3-.8l.1-.6q0-.8.4-1.4 0-.3.2-.4.3 0 .4-.3 0 0 0-.1l1-1q.1 0 .2 0 .6-.8 1.6-1.4l.5-.3.6-.1q0 0 .1 0h.2v-.1l.9-.2v.1h.8l.2.2v.7h.1v.2q-.1 0-.2 0zm-8.9 13.8q-.1-.1-.1.1.1 0 .1 0m1.2 0q0 .2 0 .2zm2.6-1q-.5 0-.2-.2v.1q0-.1.3-.2zm1.6-5.4h.1q0-.2 0 0m-4.3.4q-.2 0 0 0m1 1.8-.2.1z"/></svg>